<?xml version="1.0" encoding="iso-8859-1"?>
<!-- Generator: Adobe Illustrator 17.0.2, SVG Export Plug-In . SVG Version: 6.00 Build 0)  -->
<!DOCTYPE svg PUBLIC "-//W3C//DTD SVG 1.1//EN" "http://www.w3.org/Graphics/SVG/1.1/DTD/svg11.dtd">
<svg version="1.1" id="budget-flight" xmlns="http://www.w3.org/2000/svg" xmlns:xlink="http://www.w3.org/1999/xlink" x="0px"
	 y="0px" width="32px" height="32px" viewBox="-495.5 400.5 32 32" style="enable-background:new -495.5 400.5 32 32;"
	 xml:space="preserve">
<path d="M-468.666,420.715c0.017-0.02-2.177-2.176-5.415-2.28c-3.824-0.124-3.824-0.124-3.824-0.124s-0.675-0.062-1.108-0.495
	c-0.432-0.431-5.246-7.338-5.246-7.338s-1.048-1.541-2.159-1.541c-1.109-0.002-1.973-0.124-1.478,1.478
	c0.493,1.605,2.403,8.081,2.403,8.081l-4.441,0.371c0,0-1.111-0.042-2.135-1.317c-0.314-0.383-0.842-1.225-1.112-1.44
	c-1.156-0.914-2.29-0.067-2.29-0.067s-0.218,0.317,0.561,1.797c0.768,1.453,0.769,4.296-0.001,5.755
	c-0.781,1.48-0.557,1.795-0.557,1.795s1.126,0.847,2.285-0.068c0.272-0.213,0.8-1.056,1.112-1.441
	c1.026-1.27,2.136-1.311,2.136-1.311l4.444,0.366c0,0-1.915,6.479-2.405,8.083c-0.497,1.604,0.37,1.477,1.478,1.478
	c1.112,0,2.159-1.541,2.159-1.541s4.814-6.91,5.243-7.339c0.432-0.433,1.109-0.497,1.109-0.497s0,0,3.827-0.123
	C-470.84,422.893-468.648,420.734-468.666,420.715z"/>
<path d="M-471.5,402.125c3.516,0,6.375,2.86,6.375,6.374c0,3.516-2.859,6.376-6.375,6.376s-6.375-2.86-6.375-6.376
	C-477.875,404.985-475.016,402.125-471.5,402.125 M-471.5,400.5c-4.418,0-8,3.582-8,7.999c0,4.419,3.582,8.001,8,8.001
	s8-3.582,8-8.001C-463.5,404.082-467.082,400.5-471.5,400.5L-471.5,400.5z"/>
<path d="M-471.255,403.868c-0.621,0-1.126,0.505-1.126,1.126v3.262l-2.384,1.908c-0.483,0.388-0.562,1.096-0.175,1.584
	c0.216,0.268,0.536,0.421,0.879,0.421c0.253,0,0.503-0.087,0.703-0.246l2.564-2.054c0.016-0.013,0.023-0.032,0.038-0.045
	c0.367-0.186,0.625-0.557,0.625-0.996v-3.834C-470.129,404.373-470.634,403.868-471.255,403.868z"/>
</svg>
