<?xml version="1.0" encoding="iso-8859-1"?>
<!-- Generator: Adobe Illustrator 17.0.2, SVG Export Plug-In . SVG Version: 6.00 Build 0)  -->
<!DOCTYPE svg PUBLIC "-//W3C//DTD SVG 1.1//EN" "http://www.w3.org/Graphics/SVG/1.1/DTD/svg11.dtd">
<svg version="1.1" id="calendar" xmlns="http://www.w3.org/2000/svg" xmlns:xlink="http://www.w3.org/1999/xlink" x="0px" y="0px"
	 width="32px" height="32px" viewBox="-495.5 400.5 32 32" style="enable-background:new -495.5 400.5 32 32;" xml:space="preserve"
	>
<path d="M-467.5,406.5v-2v-2h-24v2v2h-2v26h2h24h1.031h0.969v-26H-467.5z M-485.5,418.5v-4h18v4H-485.5z M-467.5,420.5v4h-18v-4
	H-467.5z M-469.5,404.5v6h-4v-6H-469.5z M-477.5,404.5v6h-4v-6H-477.5z M-485.5,404.5v6h-4v-6H-485.5z M-491.5,414.5h4v4h-4V414.5z
	 M-491.5,420.5h4v4h-4V420.5z M-491.5,430.5v-4h4v4H-491.5z M-485.5,430.5v-4h18v4H-485.5z"/>
</svg>
