<?xml version="1.0" encoding="iso-8859-1"?>
<!-- Generator: Adobe Illustrator 17.0.2, SVG Export Plug-In . SVG Version: 6.00 Build 0)  -->
<!DOCTYPE svg PUBLIC "-//W3C//DTD SVG 1.1//EN" "http://www.w3.org/Graphics/SVG/1.1/DTD/svg11.dtd">
<svg version="1.1" id="Layer_2" xmlns="http://www.w3.org/2000/svg" xmlns:xlink="http://www.w3.org/1999/xlink" x="0px" y="0px"
	 width="32px" height="32px" viewBox="-495.5 400.5 32 32" style="enable-background:new -495.5 400.5 32 32;" xml:space="preserve"
	>
<rect x="-491.5" y="412.514" width="4" height="1.986"/>
<rect x="-491.5" y="418.5" width="4" height="2"/>
<rect x="-491.5" y="424.5" width="4" height="2"/>
<rect x="-485.5" y="424.5" width="18" height="2"/>
<rect x="-485.5" y="418.5" width="18" height="2"/>
<rect x="-485.5" y="412.5" width="18" height="2"/>
<path d="M-465.5,404.5h-28c-1.105,0-2,0.895-2,2v22c0,1.105,0.895,2,2,2h28c1.105,0,2-0.895,2-2v-22
	C-463.5,405.395-464.395,404.5-465.5,404.5z M-465.5,428.5h-28v-18h28V428.5z"/>
</svg>
