<?xml version="1.0" encoding="utf-8"?>
<!-- Generator: Adobe Illustrator 19.1.0, SVG Export Plug-In . SVG Version: 6.00 Build 0)  -->
<svg version="1.1" id="actions" xmlns="http://www.w3.org/2000/svg" xmlns:xlink="http://www.w3.org/1999/xlink" x="0px" y="0px"
	 viewBox="-483 485 32 32" style="enable-background:new -483 485 32 32;" xml:space="preserve">
<path d="M-467.1,500.6c0.3,0,0.9-0.9,1.2-1.1c0.8-0.9,1.9-1.6,2.4-2.7s0.6-2.5-0.8-2.9c-0.5-0.1-1.2,0-1.5,0.3s-0.2,0.2,0,0.6
	c0.5,1.1,1.2,2.2,0.1,3.2c-0.9,0.8-2.3,0.7-3-0.3c-0.4-0.6-0.4-1.3-0.2-1.9c0.1-0.4,0.6-0.9,0.7-1.2c0.1-0.7-1.2-0.9-1.8-0.7
	C-473.6,494.9-468.2,499.6-467.1,500.6z"/>
<path d="M-467.1,497.2c1.1,0,0.3-1.4,0-1.8C-467.4,495.8-468.2,497.2-467.1,497.2z"/>
<path d="M-467.1,485c-6.6,0-12.8,4.3-15,10.5c-2.3,6.3-0.3,13.6,4.9,17.9c5.2,4.2,12.6,4.8,18.4,1.4c5.7-3.5,8.8-10.3,7.5-16.9
	C-452.9,490.5-459.6,485-467.1,485z M-456.3,498.8c-0.1,1.2-0.5,2.4-1,3.5s-1.5,2-1.8,3.2c-0.5,2.2,0,5.1,0.7,7.3
	c-0.3,0-0.7,0.1-1,0c-0.7-0.2-0.6-1.3-0.8-1.9c-0.4-1.5-0.6-3.2-0.4-4.8c0.2-1.9,1.7-3.1,2.4-4.9c0.7-1.7,1-3.7,0.6-5.5
	c-0.8-3.6-4.3-5.6-7.7-6.1c-3.4-0.5-6.9,0.3-8.9,3.3c-0.5,0.8-1,1.7-1.2,2.6c-0.2,1-0.1,1.9-0.2,2.9s-0.2,1.9-0.8,2.7
	c-0.5,0.6-1.3,1.2-1.6,1.9c0.4,0.3,0.9,0.5,1.3,0.9c0.3,0.4,0.4,0.8,0.5,1.4c0,0.1,0,0.2,0,0.3c0.1,0.3,0.1,0.1,0.3,0.3
	c0.3,0.4,0.6,0.8,0,1.3c0.4,0.2,0.8,0.7,0.9,1.2c0.1,0.6-0.4,0.8-0.5,1.2c-0.1,0.8,2.4,0.7,3.1,0.7c2,0,3.8-0.9,4.5-2.9
	c0.3-0.9,0.1-2,0.2-2.9c0-0.6,0-1.1,0-1.7c0-0.5,0-0.5-0.3-0.8c-1.5-1.5-3.8-3-4.4-5.2c-0.5-1.8,0.3-3.7,2.2-4.3
	c0.9-0.2,1.9-0.1,2.6,0.4c0.8,0.5,0.5,0.4,1.3-0.1c1.9-1.1,4.3-0.1,4.9,2c0.6,2.4-1.6,4.4-3.2,5.9c-0.4,0.4-1.2,0.9-1.4,1.4
	c-0.1,0.3-0.1,0.9-0.1,1.3c-0.1,1-0.1,2.1-0.2,3.1c-0.3,2.3-1.8,4.1-4,4.8c-1.5,0.4-3.4,0.3-4.9,0c-0.9-0.2-1.7-0.8-1.6-1.8
	c0-0.2,0.5-0.7,0.4-0.9c-0.1-0.4-0.8-0.6-0.9-1.1c-0.1-0.3,0.1-0.5,0-0.7c0-0.2-0.3-0.4-0.3-0.6c-0.1-0.5,0.2-0.8-0.1-1.3
	c-0.3-0.5-0.9-0.6-1.3-1c-0.7-0.8-0.1-1.8,0.5-2.4c0.7-0.8,1.4-1.3,1.5-2.5c0.1-1.5-0.2-2.7,0.3-4.2c0.3-1,0.8-2,1.5-2.9
	c1.5-2,3.8-3.3,6.2-3.6c4.8-0.7,10.6,1.6,12.4,6.4c-0.1-0.3-0.2-0.6-0.3-0.9c0.1,0.4,0.3,0.8,0.4,1.2c0-0.1-0.1-0.2-0.1-0.3
	C-456.1,495.9-456,497.3-456.3,498.8C-456.4,500.1-456,497.3-456.3,498.8z"/>
</svg>
