<?xml version="1.0" encoding="iso-8859-1"?>
<!-- Generator: Adobe Illustrator 17.0.2, SVG Export Plug-In . SVG Version: 6.00 Build 0)  -->
<!DOCTYPE svg PUBLIC "-//W3C//DTD SVG 1.1//EN" "http://www.w3.org/Graphics/SVG/1.1/DTD/svg11.dtd">
<svg version="1.1" id="chart-dashed" xmlns="http://www.w3.org/2000/svg" xmlns:xlink="http://www.w3.org/1999/xlink" x="0px"
	 y="0px" width="32px" height="32px" viewBox="-495.5 400.5 32 32" style="enable-background:new -495.5 400.5 32 32;"
	 xml:space="preserve">
<polygon points="-495.5,420.5 -495.5,424.542 -491.462,420.5 "/>
<polygon points="-487.5,420.5 -487.506,420.5 -495.5,428.5 -495.5,432.375 -487.5,424.406 "/>
<polygon points="-491.458,432.5 -487.5,432.5 -487.5,428.545 "/>
<polygon points="-483.5,416.491 -475.5,408.485 -475.5,406.5 -477.474,406.5 -483.5,412.531 "/>
<polygon points="-483.5,424.548 -475.5,416.554 -475.5,412.453 -483.5,420.422 "/>
<polygon points="-479.5,432.458 -483.5,432.458 -483.5,432.5 -475.5,432.5 -475.5,432.458 -475.5,428.531 "/>
<polygon points="-483.5,406.5 -483.5,408.487 -481.515,406.5 "/>
<polygon points="-475.5,420.458 -483.5,428.486 -483.5,432.458 -475.5,424.467 "/>
<polygon points="-471.5,420.471 -465.523,414.5 -469.562,414.5 -471.5,416.444 "/>
<path d="M-471.5,428.465l7.979-7.965v4l-7.979,7.958v0.042h8v-15.75l-8,7.854V428.465z M-463.521,432.458h-3.979l3.979-3.896
	V432.458z"/>
</svg>
