<?xml version="1.0" encoding="iso-8859-1"?>
<!-- Generator: Adobe Illustrator 17.0.2, SVG Export Plug-In . SVG Version: 6.00 Build 0)  -->
<!DOCTYPE svg PUBLIC "-//W3C//DTD SVG 1.1//EN" "http://www.w3.org/Graphics/SVG/1.1/DTD/svg11.dtd">
<svg version="1.1" id="chart-dashed" xmlns="http://www.w3.org/2000/svg" xmlns:xlink="http://www.w3.org/1999/xlink" x="0px"
	 y="0px" width="32px" height="32px" viewBox="-495.5 400.5 32 32" style="enable-background:new -495.5 400.5 32 32;"
	 xml:space="preserve">
<polygon points="-483.5,400.5 -487.542,400.5 -483.5,404.538 "/>
<polygon points="-483.5,408.5 -483.5,408.494 -491.5,400.5 -495.375,400.5 -487.406,408.5 "/>
<polygon points="-495.5,404.542 -495.5,408.5 -491.545,408.5 "/>
<polygon points="-479.491,412.5 -471.485,420.5 -469.5,420.5 -469.5,418.526 -475.531,412.5 "/>
<polygon points="-487.548,412.5 -479.554,420.5 -475.453,420.5 -483.422,412.5 "/>
<polygon points="-495.458,416.5 -495.458,412.5 -495.5,412.5 -495.5,420.5 -495.458,420.5 -491.531,420.5 "/>
<polygon points="-469.5,412.5 -471.487,412.5 -469.5,414.485 "/>
<polygon points="-483.458,420.5 -491.486,412.5 -495.458,412.5 -487.467,420.5 "/>
<polygon points="-483.471,424.5 -477.5,430.477 -477.5,426.438 -479.444,424.5 "/>
<path d="M-491.465,424.5l7.965,7.979h-4l-7.958-7.979h-0.042v8h15.75l-7.854-8H-491.465z M-495.458,432.479V428.5l3.896,3.979
	H-495.458z"/>
</svg>
