<?xml version="1.0" encoding="iso-8859-1"?>
<!-- Generator: Adobe Illustrator 17.0.2, SVG Export Plug-In . SVG Version: 6.00 Build 0)  -->
<!DOCTYPE svg PUBLIC "-//W3C//DTD SVG 1.1//EN" "http://www.w3.org/Graphics/SVG/1.1/DTD/svg11.dtd">
<svg version="1.1" id="check-alt" xmlns="http://www.w3.org/2000/svg" xmlns:xlink="http://www.w3.org/1999/xlink" x="0px" y="0px"
	 width="32px" height="32px" viewBox="-495.5 400.5 32 32" style="enable-background:new -495.5 400.5 32 32;" xml:space="preserve"
	>
<path d="M-463.822,410.234c0.187-0.202,0.308-0.47,0.321-0.769c0.011-0.26-0.08-0.535-0.263-0.75l0-0.008l-3.59-3.638
	c-0.001-0.001-0.002-0.002-0.004-0.004l-0.049-0.049l-0.017,0.001c-0.189-0.183-0.446-0.316-0.79-0.316
	c-0.328,0-0.622,0.158-0.831,0.393l-0.015,0.001l-12.853,12.777c-0.207,0.253-0.522,0.415-0.875,0.415
	c-0.287,0-0.616-0.124-0.845-0.372l-6.344-6.433l-0.023,0c-0.201-0.186-0.465-0.305-0.761-0.305c-0.326,0-0.614,0.143-0.82,0.364
	l-3.584,3.526c-0.004,0.003-0.007,0.007-0.01,0.01l-0.018,0.018l0,0.01c-0.188,0.202-0.308,0.468-0.308,0.765
	c0,0.288,0.108,0.503,0.25,0.681l0,0.012l0.043,0.043c0.046,0.051,0.087,0.102,0.14,0.143l6.992,7.12l0.016-0.011l3.813,3.857h0.001
	c0.348,0.358,0.831,0.584,1.37,0.584c0.546,0,1.032-0.233,1.38-0.599l17.648-17.433c0.002-0.002,0.005-0.004,0.007-0.007
	l0.017-0.016L-463.822,410.234z"/>
</svg>
