<?xml version="1.0" encoding="iso-8859-1"?>
<!-- Generator: Adobe Illustrator 17.0.2, SVG Export Plug-In . SVG Version: 6.00 Build 0)  -->
<!DOCTYPE svg PUBLIC "-//W3C//DTD SVG 1.1//EN" "http://www.w3.org/Graphics/SVG/1.1/DTD/svg11.dtd">
<svg version="1.1" id="creatives" xmlns="http://www.w3.org/2000/svg" xmlns:xlink="http://www.w3.org/1999/xlink" x="0px" y="0px"
	 width="32px" height="32px" viewBox="-495.5 400.5 32 32" style="enable-background:new -495.5 400.5 32 32;" xml:space="preserve"
	>
<polygon points="-467.715,407.962 -467.715,409.907 -465.623,410.123 -467.452,427.807 -489.976,425.454 -489.975,425.4 
	-491.923,425.4 -492.104,427.197 -465.727,429.929 -463.5,408.396 "/>
<path d="M-469.038,424.255V402.5H-495.5v21.755H-469.038z M-493.61,404.408h22.681v17.85l-5.239-7.265l-3.348,2.544l-7.537-10.852
	c0,0-6.557,15.237-6.557,15.396V404.408z"/>
<path d="M-476.173,410.498c0.899,0,1.629-0.729,1.629-1.629c0-0.898-0.73-1.627-1.629-1.627c-0.9,0-1.63,0.729-1.63,1.627
	C-477.804,409.769-477.074,410.498-476.173,410.498z"/>
</svg>
