<?xml version="1.0" encoding="iso-8859-1"?>
<!-- Generator: Adobe Illustrator 17.0.2, SVG Export Plug-In . SVG Version: 6.00 Build 0)  -->
<!DOCTYPE svg PUBLIC "-//W3C//DTD SVG 1.1//EN" "http://www.w3.org/Graphics/SVG/1.1/DTD/svg11.dtd">
<svg version="1.1" id="day-part" xmlns="http://www.w3.org/2000/svg" xmlns:xlink="http://www.w3.org/1999/xlink" x="0px" y="0px"
	 width="32px" height="32px" viewBox="-495.5 400.5 32 32" style="enable-background:new -495.5 400.5 32 32;" xml:space="preserve"
	>
<g>
	<path d="M-479.534,413.272c1.76,0,3.192,1.43,3.192,3.192c0,1.758-1.432,3.192-3.192,3.192s-3.194-1.434-3.194-3.192
		C-482.728,414.704-481.294,413.272-479.534,413.272 M-479.534,410.08c-3.528,0-6.386,2.86-6.386,6.386s2.858,6.386,6.386,6.386
		c3.526,0,6.386-2.86,6.386-6.386C-473.148,412.938-476.008,410.08-479.534,410.08L-479.534,410.08z"/>
	<path d="M-463.5,418.096h-6.456v-3.192h6.456V418.096z"/>
	<path d="M-489.044,418.096h-6.456v-3.192h6.456V418.096z"/>
	<path d="M-477.904,400.5v6.456h-3.192V400.5H-477.904z"/>
	<path d="M-477.904,426.044v6.456h-3.192v-6.456H-477.904z"/>
	<path d="M-467.058,406.316l-4.564,4.564l-2.258-2.258l4.566-4.564L-467.058,406.316z"/>
	<path d="M-485.12,424.378l-4.564,4.564l-2.258-2.258l4.564-4.564L-485.12,424.378z"/>
	<path d="M-489.686,404.058l4.564,4.564l-2.258,2.258l-4.564-4.564L-489.686,404.058z"/>
	<path d="M-471.622,422.12l4.564,4.564l-2.258,2.258l-4.566-4.564L-471.622,422.12z"/>
</g>
</svg>
