<?xml version="1.0" encoding="iso-8859-1"?>
<!-- Generator: Adobe Illustrator 17.0.2, SVG Export Plug-In . SVG Version: 6.00 Build 0)  -->
<!DOCTYPE svg PUBLIC "-//W3C//DTD SVG 1.1//EN" "http://www.w3.org/Graphics/SVG/1.1/DTD/svg11.dtd">
<svg version="1.1" id="display" xmlns="http://www.w3.org/2000/svg" xmlns:xlink="http://www.w3.org/1999/xlink" x="0px" y="0px"
	 width="32px" height="32px" viewBox="-495.5 400.5 32 32" style="enable-background:new -495.5 400.5 32 32;" xml:space="preserve"
	>
<g>
	<path d="M-468.617,405.643h-21.768c-0.566,0-1.023,0.487-1.023,1.085v0.362v12.666c0,0.602,0.457,1.085,1.023,1.085h0.342h21.091
		h0.338c0.564,0,1.023-0.483,1.023-1.085V407.09v-0.362C-467.594,406.13-468.049,405.643-468.617,405.643z M-468.955,419.396
		h-21.091v-12.307h21.091V419.396z"/>
	<path d="M-467.557,421.573c-0.206-0.201-0.606-0.366-0.885-0.366h-22.114c-0.281,0-0.679,0.165-0.885,0.366l-4.059,3.974v0.725
		c0,0,0,1.085,1.023,1.085h29.954c1.023,0,1.023-1.085,1.023-1.085v-0.725L-467.557,421.573z M-482.932,423.871h6.863l0.692,1.18
		h-8.244L-482.932,423.871z"/>
</g>
</svg>
