<?xml version="1.0" encoding="utf-8"?>
<!-- Generator: Adobe Illustrator 17.0.2, SVG Export Plug-In . SVG Version: 6.00 Build 0)  -->
<!DOCTYPE svg PUBLIC "-//W3C//DTD SVG 1.1//EN" "http://www.w3.org/Graphics/SVG/1.1/DTD/svg11.dtd">
<svg version="1.1" id="dmp" xmlns="http://www.w3.org/2000/svg" xmlns:xlink="http://www.w3.org/1999/xlink" x="0px" y="0px"
	 width="32px" height="32px" viewBox="-495.5 400.5 32 32" enable-background="new -495.5 400.5 32 32" xml:space="preserve">
<g>
	<g>
		<path d="M-495.192,411.385c0.217,0.341,0.54,0.663,0.969,0.964c1.88,1.328,5.649,2.234,9.997,2.234
			c4.348,0,8.117-0.906,9.997-2.234c0.428-0.302,0.752-0.623,0.968-0.964c0.194-0.303,0.309-0.622,0.309-0.948
			c0-0.04-0.013-0.078-0.016-0.118h0.016v-3.791h-0.016c-0.172-2.234-5.14-4.028-11.258-4.028c-6.118,0-11.086,1.794-11.258,4.028
			h-0.016v3.791h0.016c-0.004,0.041-0.016,0.078-0.016,0.118C-495.5,410.763-495.386,411.082-495.192,411.385z M-484.272,403.607
			c5.259,0,9.696,1.32,9.696,2.884c0,1.563-4.437,2.884-9.696,2.884c-5.253,0-9.691-1.321-9.691-2.884
			C-493.963,404.927-489.525,403.607-484.272,403.607z M-466.717,424.018c-1.347-0.309-2.622-0.838-3.187-1.475
			c-0.296-0.329-0.286-0.49-0.116-1.562c0.124-0.502,0.244-0.743,0.362-0.922c0.167-0.253,0.352-0.57,0.594-1.956
			c0.209-1.177,0.01-2.177-0.556-2.79c-0.434-0.473-1.079-0.725-1.906-0.725c-0.835,0-1.477,0.241-1.912,0.714
			c-0.565,0.615-0.761,1.598-0.557,2.775c0.24,1.386,0.425,1.671,0.599,1.923c0.118,0.178,0.234,0.367,0.356,0.856
			c0.176,1.085,0.182,1.125-0.116,1.458c-0.561,0.637-1.838,1.396-3.183,1.705c-1.441,0.33-3.212,5.256-3.212,5.256h16.05
			C-463.5,429.274-465.273,424.348-466.717,424.018z M-484.226,424.061c-5.335,0-9.795-1.366-10.966-3.195
			c-0.168,0.266-0.27,0.54-0.292,0.825h-0.016v3.791h0.016c-0.004,0.041-0.016,0.078-0.016,0.118c0,2.289,5.048,4.146,11.274,4.146
			c0.956,0,1.986-0.132,1.986-0.132s1.299-2.738,1.423-3.006c0.533-1.153,1.041-2.179,1.611-2.996
			C-480.721,423.893-482.414,424.061-484.226,424.061z M-495.192,418.967c0.217,0.341,0.54,0.663,0.969,0.964
			c1.88,1.328,5.649,2.235,9.997,2.235c3.593,0,6.771-0.626,8.834-1.588c-0.242-0.465-0.429-1.066-0.625-2.203
			c-0.22-1.27-0.078-2.426,0.386-3.365c-1.093,0.474-2.47,0.859-4.042,1.114c-1.393,0.226-2.933,0.355-4.554,0.355
			c-1.621,0-3.161-0.13-4.554-0.355c-3.191-0.518-5.597-1.566-6.412-2.84c-0.168,0.267-0.27,0.54-0.292,0.826h-0.016v3.791h0.016
			c-0.004,0.04-0.016,0.078-0.016,0.118C-495.5,418.346-495.386,418.664-495.192,418.967z"/>
	</g>
</g>
</svg>
