<?xml version="1.0" encoding="iso-8859-1"?>
<!-- Generator: Adobe Illustrator 17.0.2, SVG Export Plug-In . SVG Version: 6.00 Build 0)  -->
<!DOCTYPE svg PUBLIC "-//W3C//DTD SVG 1.1//EN" "http://www.w3.org/Graphics/SVG/1.1/DTD/svg11.dtd">
<svg version="1.1" id="dots" xmlns="http://www.w3.org/2000/svg" xmlns:xlink="http://www.w3.org/1999/xlink" x="0px" y="0px"
	 width="32px" height="32px" viewBox="-495.5 400.5 32 32" style="enable-background:new -495.5 400.5 32 32;" xml:space="preserve"
	>
<path d="M-473.474,406.536c0,3.332-2.7,6.034-6.024,6.036c-3.328,0-6.024-2.704-6.024-6.036s2.696-6.036,6.024-6.036
	C-476.174,400.502-473.476,403.206-473.474,406.536z"/>
<path d="M-483.452,416.532c-0.002,3.332-2.698,6.036-6.024,6.036c-3.326-0.002-6.022-2.704-6.024-6.034
	c0.002-3.334,2.696-6.036,6.024-6.036C-486.148,410.496-483.452,413.2-483.452,416.532z"/>
<path d="M-463.5,416.534c0,3.332-2.698,6.034-6.022,6.034c-3.328,0-6.022-2.704-6.024-6.038c0-3.33,2.694-6.034,6.022-6.034
	C-466.196,410.496-463.498,413.2-463.5,416.534z"/>
<path d="M-473.412,426.464c0,3.332-2.698,6.036-6.024,6.038c-3.324-0.002-6.022-2.704-6.024-6.038
	c0.002-3.33,2.698-6.036,6.024-6.036C-476.11,420.43-473.41,423.134-473.412,426.464z"/>
</svg>
