<?xml version="1.0" encoding="iso-8859-1"?>
<!-- Generator: Adobe Illustrator 17.0.2, SVG Export Plug-In . SVG Version: 6.00 Build 0)  -->
<!DOCTYPE svg PUBLIC "-//W3C//DTD SVG 1.1//EN" "http://www.w3.org/Graphics/SVG/1.1/DTD/svg11.dtd">
<svg version="1.1" id="Layer_1" xmlns="http://www.w3.org/2000/svg" xmlns:xlink="http://www.w3.org/1999/xlink" x="0px" y="0px"
	 width="32px" height="32px" viewBox="-495.5 400.5 32 32" style="enable-background:new -495.5 400.5 32 32;" xml:space="preserve"
	>
<g id="cycle-arrow">
	<path d="M-495.5,416.5c0,8.8,7.2,16,16,16s16-7.2,16-16s-7.2-16-16-16S-495.5,407.7-495.5,416.5z M-479.5,428.5
		c-2.6,0-5-0.8-6.9-2.2l16.7-16.7c1.4,2,2.2,4.4,2.2,6.9C-467.5,423.1-472.9,428.5-479.5,428.5z M-491.5,416.5c0-6.6,5.4-12,12-12
		c2.6,0,5,0.8,6.9,2.2l-16.7,16.7C-490.7,421.5-491.5,419.1-491.5,416.5z"/>
</g>
</svg>
