<?xml version="1.0" encoding="iso-8859-1"?>
<!-- Generator: Adobe Illustrator 17.0.2, SVG Export Plug-In . SVG Version: 6.00 Build 0)  -->
<!DOCTYPE svg PUBLIC "-//W3C//DTD SVG 1.1//EN" "http://www.w3.org/Graphics/SVG/1.1/DTD/svg11.dtd">
<svg version="1.1" id="geo-tag" xmlns="http://www.w3.org/2000/svg" xmlns:xlink="http://www.w3.org/1999/xlink" x="0px" y="0px"
	 width="32px" height="32px" viewBox="-495.5 400.5 32 32" style="enable-background:new -495.5 400.5 32 32;" xml:space="preserve"
	>
<path d="M-470.357,410.131c0-5.318-4.09-9.631-9.143-9.631c-5.052,0-9.143,4.314-9.143,9.631c0,1.526,0.344,2.963,0.939,4.245
	l-0.008,0.001l8.211,18.123l0.001-0.001v0.001l8.21-18.123l-0.007-0.001C-470.701,413.094-470.357,411.658-470.357,410.131z
	 M-479.5,404.95c2.719,0,4.922,2.325,4.922,5.192c0,1.218-0.402,2.336-1.068,3.223c-0.901,1.197-2.292,1.968-3.855,1.968
	c-1.563,0-2.952-0.771-3.855-1.968c-0.667-0.886-1.069-2.005-1.069-3.223C-484.424,407.275-482.219,404.95-479.5,404.95z"/>
</svg>
