<?xml version="1.0" encoding="iso-8859-1"?>
<!-- Generator: Adobe Illustrator 17.0.2, SVG Export Plug-In . SVG Version: 6.00 Build 0)  -->
<!DOCTYPE svg PUBLIC "-//W3C//DTD SVG 1.1//EN" "http://www.w3.org/Graphics/SVG/1.1/DTD/svg11.dtd">
<svg version="1.1" id="health" xmlns="http://www.w3.org/2000/svg" xmlns:xlink="http://www.w3.org/1999/xlink" x="0px" y="0px"
	 width="32px" height="32px" viewBox="-495.5 400.5 32 32" style="enable-background:new -495.5 400.5 32 32;" xml:space="preserve"
	>
<path d="M-464.623,415.996l-7.98-0.243l-2.318,5.588c-0.171,0.454-0.629,0.711-1.083,0.647c-0.525-0.038-0.94-0.478-0.94-1.017
	v-8.874l-5.563,14.593c-0.055,0.141-0.137,0.263-0.238,0.365c-0.005,0.004-0.008,0.007-0.013,0.01
	c-0.013,0.016-0.029,0.029-0.046,0.043c-0.176,0.154-0.408,0.248-0.661,0.248c-0.559,0-1.013-0.458-1.013-1.021v-9.258l-0.622,1.497
	c-0.171,0.456-0.63,0.714-1.092,0.647l-8.833-0.638c-0.262,0-0.475-0.214-0.475-0.479c0-0.263,0.213-0.477,0.475-0.477l8.3-0.422
	l2.308-5.57c0.2-0.527,0.784-0.792,1.307-0.591c0.336,0.129,0.564,0.42,0.632,0.75c0.015,0.076,0.026,0.154,0.026,0.233v8.818
	l5.547-14.55c0.18-0.474,0.673-0.733,1.152-0.634c0.474,0.082,0.837,0.501,0.837,1.003v9.371l0.676-1.635
	c0.164-0.43,0.588-0.687,1.023-0.654l8.593-0.014c0.62,0,1.123,0.506,1.123,1.129C-463.517,415.49-464.002,415.996-464.623,415.996z
	"/>
</svg>
