<?xml version="1.0" encoding="iso-8859-1"?>
<!-- Generator: Adobe Illustrator 17.0.2, SVG Export Plug-In . SVG Version: 6.00 Build 0)  -->
<!DOCTYPE svg PUBLIC "-//W3C//DTD SVG 1.1//EN" "http://www.w3.org/Graphics/SVG/1.1/DTD/svg11.dtd">
<svg version="1.1" id="lego" xmlns="http://www.w3.org/2000/svg" xmlns:xlink="http://www.w3.org/1999/xlink" x="0px" y="0px"
	 width="32px" height="32px" viewBox="-495.5 400.5 32 32" style="enable-background:new -495.5 400.5 32 32;" xml:space="preserve"
	>
<g>
	<polygon points="-478.608,432.5 -464.645,423.773 -464.645,409.81 -478.608,418.537 	"/>
	<path d="M-468.484,405.891c0.004-0.015,0.011-0.031,0.011-0.046c0-0.038,0-0.073,0-0.111c0-0.983-1.889-1.774-4.075-1.839
		l-2.681-1.316c0.008-0.039,0.03-0.077,0.03-0.118c0-0.037,0-0.073,0-0.111c0-1.011-1.994-1.824-4.258-1.846
		c-0.027-0.002-0.053-0.003-0.08-0.005c-0.006,0-0.013,0-0.019,0c-2.183,0-4.019,0.74-4.263,1.691
		c-0.006,0.119,0.014,0.228,0.009,0.354c0.003,0.015,0.01,0.031,0.017,0.044l-2.639,1.295c-2.166,0.009-3.982,0.743-4.225,1.689
		c-0.006,0.119,0.014,0.228,0.009,0.355c0.001,0.007,0.005,0.015,0.009,0.022l-3.862,1.895l15.054,9.163l14.801-9.235
		L-468.484,405.891z M-483.786,402.608c0.224,0.96,2.031,1.71,4.23,1.71c0.015,0,0.029-0.002,0.043-0.002c0.002,0,0.004,0,0.005,0
		c0.04,0,0.079-0.005,0.119-0.005c0.271-0.005,0.537-0.02,0.796-0.048c0.172-0.017,0.335-0.044,0.5-0.072
		c0.08-0.012,0.165-0.021,0.244-0.034c0.142-0.027,0.272-0.063,0.406-0.095c0.096-0.024,0.197-0.043,0.288-0.07
		c0.061-0.017,0.113-0.039,0.173-0.06c0.977-0.314,1.663-0.793,1.752-1.348c0.018,0.477,0.031,0.989,0.031,1.57
		c0,0.02-0.012,0.039-0.014,0.06c-1.014,0.305-1.734,0.793-1.879,1.36c-0.002,0.051,0.001,0.102,0.004,0.152
		c-0.689,0.208-1.521,0.331-2.42,0.336c-0.955-0.005-1.829-0.148-2.542-0.382c-0.041-0.576-0.73-1.081-1.739-1.408
		c-0.006-0.039-0.027-0.077-0.027-0.117C-483.815,403.582-483.804,403.079-483.786,402.608z M-490.652,407.538
		c0-0.573,0.012-1.076,0.03-1.546c0.224,0.96,2.031,1.71,4.23,1.71c0.015,0,0.029-0.002,0.043-0.002c0.002,0,0.004,0,0.005,0
		c0.04,0,0.078-0.005,0.118-0.005c0.271-0.005,0.537-0.02,0.796-0.048c0.172-0.017,0.335-0.044,0.5-0.072
		c0.08-0.012,0.165-0.02,0.244-0.034c0.142-0.027,0.272-0.063,0.406-0.095c0.096-0.024,0.197-0.043,0.288-0.07
		c0.061-0.017,0.113-0.039,0.173-0.06c0.977-0.312,1.663-0.793,1.752-1.348c0.016,0.44,0.027,0.915,0.029,1.44
		c-0.961,0.307-1.641,0.779-1.781,1.328c-0.006,0.111,0.01,0.215,0.009,0.331c-0.712,0.23-1.583,0.373-2.534,0.378
		C-488.728,409.432-490.652,408.586-490.652,407.538z M-479.507,412.607c-2.384-0.014-4.308-0.859-4.308-1.907
		c0-0.573,0.012-1.076,0.03-1.546c0.224,0.96,2.031,1.71,4.23,1.71c0.015,0,0.029-0.002,0.043-0.002c0.002,0,0.004,0,0.005,0
		c0.04,0,0.079-0.005,0.119-0.005c0.273-0.005,0.539-0.022,0.796-0.048c0.172-0.017,0.335-0.044,0.5-0.072
		c0.08-0.012,0.165-0.021,0.244-0.034c0.142-0.027,0.272-0.063,0.406-0.095c0.095-0.024,0.198-0.043,0.288-0.07
		c0.061-0.017,0.113-0.039,0.173-0.06c0.977-0.314,1.663-0.793,1.752-1.348c0.018,0.477,0.031,0.989,0.031,1.57
		C-475.199,411.748-477.124,412.593-479.507,412.607z M-472.781,409.445c-0.908-0.005-1.748-0.133-2.442-0.344
		c0.009-0.031,0.023-0.061,0.023-0.094c0-0.037,0-0.073,0-0.111c0-0.626-0.769-1.174-1.888-1.509
		c0.002-0.508,0.012-0.97,0.028-1.396c0.224,0.96,2.031,1.71,4.23,1.71c0.015,0,0.029-0.002,0.043-0.002c0.002,0,0.003,0,0.005,0
		c0.04,0,0.079-0.005,0.118-0.005c0.271-0.005,0.537-0.02,0.796-0.048c0.172-0.017,0.335-0.044,0.5-0.072
		c0.08-0.012,0.165-0.02,0.244-0.034c0.142-0.027,0.272-0.063,0.407-0.095c0.095-0.024,0.196-0.043,0.287-0.07
		c0.061-0.017,0.113-0.039,0.173-0.06c0.977-0.312,1.662-0.793,1.752-1.348c0.018,0.477,0.031,0.989,0.031,1.57
		C-468.473,408.586-470.397,409.432-472.781,409.445z"/>
	<polygon points="-494.5,423.773 -480.537,432.5 -480.537,418.537 -494.5,409.81 	"/>
</g>
</svg>
