<?xml version="1.0" encoding="iso-8859-1"?>
<!-- Generator: Adobe Illustrator 17.0.2, SVG Export Plug-In . SVG Version: 6.00 Build 0)  -->
<!DOCTYPE svg PUBLIC "-//W3C//DTD SVG 1.1//EN" "http://www.w3.org/Graphics/SVG/1.1/DTD/svg11.dtd">
<svg version="1.1" id="Layer_1" xmlns="http://www.w3.org/2000/svg" xmlns:xlink="http://www.w3.org/1999/xlink" x="0px" y="0px"
	 width="32px" height="32px" viewBox="-495.5 400.5 32 32" style="enable-background:new -495.5 400.5 32 32;" xml:space="preserve"
	>
<path d="M-468.485,416.5h-1.676v-6.662c0-5.157-4.181-9.338-9.338-9.338c-5.158,0-9.339,4.181-9.339,9.338v6.662h-1.676
	c-0.623,0.135-1.091,0.688-1.091,1.351v13.265c0,0.765,0.619,1.384,1.384,1.384h21.444c0.764,0,1.384-0.619,1.384-1.384v-13.265
	C-467.394,417.188-467.862,416.635-468.485,416.5z M-484.442,416.5v-6.385c0-2.73,2.213-4.942,4.943-4.942
	c2.729,0,4.943,2.213,4.943,4.942v6.385H-484.442z"/>
</svg>
