<?xml version="1.0" encoding="utf-8"?>
<!-- Generator: Adobe Illustrator 17.0.2, SVG Export Plug-In . SVG Version: 6.00 Build 0)  -->
<!DOCTYPE svg PUBLIC "-//W3C//DTD SVG 1.1//EN" "http://www.w3.org/Graphics/SVG/1.1/DTD/svg11.dtd">
<svg version="1.1" id="my-data" xmlns="http://www.w3.org/2000/svg" xmlns:xlink="http://www.w3.org/1999/xlink" x="0px" y="0px"
	 width="32px" height="32px" viewBox="-495.5 400.5 32 32" enable-background="new -495.5 400.5 32 32" xml:space="preserve">
<g>
	<path d="M-473.951,411.688h0.022h0.01c0.236,0,0.469,0.019,0.697,0.046v-6.317h-17.588v18.42h12.227
		c-0.353-1.5-0.848-3.555-0.945-4.184c-0.398-2.551,0.051-4.645,1.264-6.129C-477.607,412.723-475.854,411.688-473.951,411.688z"/>
	<path d="M-481.447,427.434c0.674-0.373,1.303-0.723,1.946-1.135h-13.653v-23.348h22.275v9.519c0.674,0.351,1.192,0.751,1.44,1.056
		c0.396,0.483,0.678,1.04,0.908,1.633V400.5H-495.5v28.25h11.802C-482.895,428.234-482.155,427.824-481.447,427.434z"/>
	<path d="M-465.719,430.063c-0.898-0.695-1.855-1.078-2.812-1.545l0,0c-0.754-0.422-1.535-0.928-2.406-1.647
		c-0.162-0.16-0.322-0.318-0.481-0.506c-0.01-0.023-0.018-0.043-0.027-0.066h-0.004c-0.238-0.395,0.146-2.084,0.57-3.83v0.144
		c0.285-1.156,0.588-2.357,0.727-3.269c0.082-0.525,0.115-1.014,0.111-1.475c-0.002-0.593-0.078-1.127-0.215-1.612
		c-0.002-0.006-0.002-0.012-0.004-0.018c-0.156-0.555-0.396-1.042-0.727-1.446c-0.324-0.398-1.639-1.105-2.934-1.105h-0.016
		c-1.244,0-2.469,0.721-2.785,1.105c-0.631,0.771-0.953,1.754-0.949,3.023c0,0.434,0.039,0.898,0.117,1.402
		c0.047,0.305,0.113,0.645,0.189,1.002c0.068,0.326,0.148,0.67,0.23,1.02c0.002,0.006,0.002,0.01,0.004,0.016
		c0.205,0.863,0.434,1.768,0.617,2.58l0,0c0.289,1.269,0.463,2.307,0.217,2.521c-2.457,2.143-4.046,2.109-6.297,3.734
		c-0.714,0.516-1.24,1.359-1.588,2.408h20.23C-464.262,431.689-464.789,430.781-465.719,430.063z"/>
</g>
</svg>
