<?xml version="1.0" encoding="iso-8859-1"?>
<!-- Generator: Adobe Illustrator 17.0.2, SVG Export Plug-In . SVG Version: 6.00 Build 0)  -->
<!DOCTYPE svg PUBLIC "-//W3C//DTD SVG 1.1//EN" "http://www.w3.org/Graphics/SVG/1.1/DTD/svg11.dtd">
<svg version="1.1" xmlns="http://www.w3.org/2000/svg" xmlns:xlink="http://www.w3.org/1999/xlink" x="0px" y="0px" width="32px"
	 height="32px" viewBox="-495.5 400.5 32 32" style="enable-background:new -495.5 400.5 32 32;" xml:space="preserve">
<g id="refresh">
</g>
<g id="preview">
	<g>
		<path d="M-463.502,416.44c-0.001-0.014-0.002-0.027-0.003-0.04c-0.001-0.007-0.001-0.014-0.002-0.02
			c-0.001-0.01-0.003-0.019-0.004-0.029c-0.001-0.011-0.003-0.023-0.004-0.034c0-0.001-0.001-0.003-0.001-0.004
			c-0.039-0.25-0.156-0.485-0.334-0.665c-1.021-1.223-2.235-2.311-3.47-3.305c-2.66-2.142-5.701-3.934-9.058-4.655
			c-1.94-0.417-3.893-0.434-5.844-0.082c-1.774,0.321-3.484,0.988-5.085,1.815c-2.505,1.294-4.793,3.078-6.787,5.078
			c-0.369,0.37-0.736,0.748-1.071,1.15c-0.447,0.535-0.447,1.169,0,1.704c1.021,1.223,2.235,2.311,3.47,3.305
			c2.66,2.142,5.701,3.933,9.058,4.655c1.94,0.417,3.893,0.435,5.844,0.082c1.774-0.321,3.484-0.988,5.085-1.814
			c2.505-1.294,4.793-3.078,6.787-5.078c0.369-0.371,0.736-0.748,1.071-1.15c0.179-0.181,0.295-0.415,0.334-0.665
			c0-0.001,0-0.003,0.001-0.004c0.002-0.011,0.003-0.022,0.004-0.034c0.001-0.009,0.003-0.019,0.004-0.029
			c0.001-0.007,0.001-0.013,0.002-0.02c0.001-0.013,0.002-0.026,0.003-0.039c0.001-0.02,0.002-0.04,0.002-0.06
			C-463.5,416.479-463.501,416.46-463.502,416.44z M-479.5,422.723c-3.4,0-6.157-2.786-6.157-6.224c0-3.437,2.756-6.224,6.157-6.224
			c3.4,0,6.157,2.786,6.157,6.224C-473.343,419.938-476.099,422.723-479.5,422.723z"/>
		<ellipse cx="-479.5" cy="416.5" rx="2.038" ry="2.06"/>
	</g>
</g>
</svg>
