<?xml version="1.0" encoding="utf-8"?>
<!-- Generator: Adobe Illustrator 19.1.0, SVG Export Plug-In . SVG Version: 6.00 Build 0)  -->
<svg version="1.1" id="actions" xmlns="http://www.w3.org/2000/svg" xmlns:xlink="http://www.w3.org/1999/xlink" x="0px" y="0px"
	 viewBox="-483 485 32 32" style="enable-background:new -483 485 32 32;" xml:space="preserve">
<g>
	<path d="M-473.5,516.9L-473.5,516.9L-473.5,516.9L-473.5,516.9l5.7-1.9l-3.8-4L-473.5,516.9z M-452.6,497.3l-1.4-1.3
		c-0.8-0.8-2.1-0.8-3,0l-1.2,1.2l4.3,4.2l1.2-1.2C-451.8,499.4-451.8,498.2-452.6,497.3z M-470.9,509.9l4.3,4.3l11.9-11.9l-4.3-4.3
		L-470.9,509.9z M-463.6,498.4l-6.4-1.5l3.6-8.6l-10.6,10.3l6.5,1.5l-4,8.5L-463.6,498.4z"/>
	<polygon points="-463,485 -464.8,485 -481,485 -481,486.8 -481,512 -479.2,512 -473.8,512 -473.8,510.2 -479.2,510.2 -479.2,486.8 
		-464.8,486.8 -464.8,492.2 -459.4,492.2 -459.4,495.8 -457.6,495.8 -457.6,492.2 -457.6,490.4 	"/>
</g>
</svg>
