<?xml version="1.0" encoding="iso-8859-1"?>
<!-- Generator: Adobe Illustrator 17.0.2, SVG Export Plug-In . SVG Version: 6.00 Build 0)  -->
<!DOCTYPE svg PUBLIC "-//W3C//DTD SVG 1.1//EN" "http://www.w3.org/Graphics/SVG/1.1/DTD/svg11.dtd">
<svg version="1.1" id="Layer_2" xmlns="http://www.w3.org/2000/svg" xmlns:xlink="http://www.w3.org/1999/xlink" x="0px" y="0px"
	 width="32px" height="32px" viewBox="-495.5 400.5 32 32" style="enable-background:new -495.5 400.5 32 32;" xml:space="preserve"
	>
<polygon style="fill-rule:evenodd;clip-rule:evenodd;" points="-493.5,428.5 -493.5,402.5 -495.5,402.5 -495.5,430.5 -463.5,430.5 
	-463.5,428.5 "/>
<path style="fill-rule:evenodd;clip-rule:evenodd;" d="M-488.5,418.5c1.657,0,3,1.343,3,3c0,1.657-1.343,3-3,3s-3-1.343-3-3
	C-491.5,419.843-490.157,418.5-488.5,418.5z"/>
<path style="fill-rule:evenodd;clip-rule:evenodd;" d="M-484.5,406.5c1.657,0,3,1.343,3,3c0,1.657-1.343,3-3,3c-1.657,0-3-1.343-3-3
	C-487.5,407.843-486.157,406.5-484.5,406.5z"/>
<path style="fill-rule:evenodd;clip-rule:evenodd;" d="M-476.5,414.5c1.657,0,3,1.343,3,3c0,1.657-1.343,3-3,3c-1.657,0-3-1.343-3-3
	C-479.5,415.843-478.157,414.5-476.5,414.5z"/>
<path style="fill-rule:evenodd;clip-rule:evenodd;" d="M-468.5,406.5c1.657,0,3,1.343,3,3c0,1.657-1.343,3-3,3s-3-1.343-3-3
	C-471.5,407.843-470.157,406.5-468.5,406.5z"/>
</svg>
