<?xml version="1.0" encoding="iso-8859-1"?>
<!-- Generator: Adobe Illustrator 17.0.2, SVG Export Plug-In . SVG Version: 6.00 Build 0)  -->
<!DOCTYPE svg PUBLIC "-//W3C//DTD SVG 1.1//EN" "http://www.w3.org/Graphics/SVG/1.1/DTD/svg11.dtd">
<svg version="1.1" id="Layer_1" xmlns="http://www.w3.org/2000/svg" xmlns:xlink="http://www.w3.org/1999/xlink" x="0px" y="0px"
	 width="32px" height="32px" viewBox="-495.5 400.5 32 32" style="enable-background:new -495.5 400.5 32 32;" xml:space="preserve"
	>
<g id="search">
	<path style="fill:none;stroke:#FF0000;stroke-width:0.25;stroke-miterlimit:10;" d="M-463.5,428.5"/>
	<path d="M-473.3,418.7c1.1-1.8,1.8-3.9,1.8-6.2c0-6.6-5.4-12-12-12s-12,5.4-12,12s5.4,12,12,12c2.3,0,4.4-0.6,6.2-1.7l9.7,9.7
		l4.1-4L-473.3,418.7z M-483.5,420.5c-4.4,0-8-3.6-8-8s3.6-8,8-8s8,3.6,8,8S-479.1,420.5-483.5,420.5z"/>
</g>
</svg>
