<?xml version="1.0" encoding="iso-8859-1"?>
<!-- Generator: Adobe Illustrator 17.0.2, SVG Export Plug-In . SVG Version: 6.00 Build 0)  -->
<!DOCTYPE svg PUBLIC "-//W3C//DTD SVG 1.1//EN" "http://www.w3.org/Graphics/SVG/1.1/DTD/svg11.dtd">
<svg version="1.1" id="site-list" xmlns="http://www.w3.org/2000/svg" xmlns:xlink="http://www.w3.org/1999/xlink" x="0px" y="0px"
	 width="32px" height="32px" viewBox="-495.5 400.5 32 32" style="enable-background:new -495.5 400.5 32 32;" xml:space="preserve"
	>
<path d="M-473.497,419.074c-0.242,0.513-0.562,0.943-0.951,1.274c-1.886,1.589-3.818,0.066-4.189-0.844
	c-0.482,0.53-1.32,0.794-2.029,0.794c-1.854,0-3.351-1.506-3.351-3.357c0-1.851,1.497-3.359,3.351-3.359
	c0.709,0,1.4,0.215,1.967,0.629v-0.232h1.4l0.016,4.698h0.016c0,0.695,1.402,1.951,2.547-0.182c0.385-0.695,0.419-1.688,0.242-2.629
	c-0.58-3.291-3.754-5.474-7.074-4.863c-3.317,0.612-5.541,3.821-4.961,7.112c0.578,3.291,3.752,5.492,7.072,4.863
	c0.532-0.099,1.048-0.265,1.547-0.478l0.016-0.017l0.965,1.125l-0.032,0.017c-0.709,0.348-1.467,0.596-2.239,0.728
	c-0.999,0.199-1.997,0.199-2.98-0.017c-0.935-0.215-1.82-0.596-2.625-1.142c-0.806-0.546-1.467-1.241-1.999-2.05
	c-0.546-0.844-0.917-1.769-1.094-2.778c-0.177-0.993-0.161-2.002,0.081-2.977c0.21-0.96,0.613-1.835,1.159-2.646
	c0.564-0.811,1.257-1.489,2.077-2.019c0.838-0.546,1.773-0.908,2.772-1.09c0.997-0.182,1.997-0.182,2.964,0.017
	c0.951,0.215,1.836,0.596,2.628,1.142c0.804,0.563,1.481,1.241,2.013,2.05c0.546,0.844,0.919,1.771,1.096,2.78
	C-472.886,416.842-473.029,418.066-473.497,419.074z M-478.699,416.941c0-1.059-0.872-1.953-1.967-1.953
	c-1.08,0-1.967,0.894-1.967,1.953c0,1.076,0.885,1.951,1.967,1.951C-479.572,418.894-478.699,418.017-478.699,416.941z"/>
<path d="M-471.5,400.5h-22v32h28v-26L-471.5,400.5z M-467.5,430.5h-24v-28h18v6h6V430.5z"/>
</svg>
