<?xml version="1.0" encoding="iso-8859-1"?>
<!-- Generator: Adobe Illustrator 17.0.2, SVG Export Plug-In . SVG Version: 6.00 Build 0)  -->
<!DOCTYPE svg PUBLIC "-//W3C//DTD SVG 1.1//EN" "http://www.w3.org/Graphics/SVG/1.1/DTD/svg11.dtd">
<svg version="1.1" id="supply" xmlns="http://www.w3.org/2000/svg" xmlns:xlink="http://www.w3.org/1999/xlink" x="0px" y="0px"
	 width="32px" height="32px" viewBox="-495.5 400.5 32 32" style="enable-background:new -495.5 400.5 32 32;" xml:space="preserve"
	>
<path d="M-474.274,417.617h4.56c0.44,1.191,1.621,2.108,3.014,2.108c1.767,0,3.2-1.446,3.2-3.213c0-1.767-1.433-3.156-3.2-3.156
	c-1.393,0-2.574,0.689-3.014,2.177h-4.56c-0.138-0.893-0.408-1.363-0.778-1.923l4.842-4.867c0.417,0.2,0.883,0.302,1.377,0.302
	c1.767,0,3.2-1.439,3.2-3.206c0-1.767-1.433-3.203-3.2-3.203s-3.2,1.431-3.2,3.198c0,0.494,0.115,0.959,0.315,1.376l-4.816,4.841
	c-0.56-0.371-1.252-0.64-1.848-0.778v-4.559c1.191-0.44,2.108-1.622,2.108-3.014c0-1.767-1.445-3.2-3.213-3.2
	c-1.767,0-3.156,1.432-3.156,3.2c0,1.393,0.689,2.574,2.177,3.014v4.56c-0.893,0.138-1.363,0.408-1.923,0.778l-4.872-4.847
	c0.199-0.417,0.308-0.878,0.308-1.372c0-1.767-1.439-3.2-3.206-3.2s-3.203,1.432-3.203,3.2s1.431,3.2,3.198,3.2
	c0.493,0,0.954-0.121,1.371-0.32l4.846,4.897c-0.371,0.56-0.64,1.03-0.778,1.923h-4.56c-0.44-1.488-1.621-2.183-3.014-2.183
	c-1.767,0-3.2,1.407-3.2,3.175c0,1.767,1.433,3.213,3.2,3.213c1.393,0,2.574-0.93,3.014-2.121h4.56
	c0.138,0.595,0.408,1.288,0.778,1.848l-4.842,4.829c-0.417-0.2-0.883-0.321-1.377-0.321c-1.767,0-3.2,1.43-3.2,3.197
	c0,1.767,1.433,3.198,3.2,3.198c1.767,0,3.2-1.433,3.2-3.201c0-0.494-0.115-0.96-0.315-1.377l4.892-4.842
	c0.56,0.371,1.03,0.64,1.923,0.778v4.56c-1.488,0.44-2.183,1.621-2.183,3.014c0,1.767,1.408,3.2,3.175,3.2s3.213-1.433,3.213-3.2
	c0-1.393-0.93-2.574-2.121-3.014v-4.56c0.595-0.138,1.288-0.408,1.848-0.778l4.829,4.842c-0.2,0.417-0.321,0.883-0.321,1.377
	c0,1.767,1.43,3.2,3.197,3.2c1.767,0,3.198-1.432,3.198-3.2c0-1.767-1.434-3.2-3.201-3.2c-0.494,0-0.96,0.115-1.377,0.315
	l-4.842-4.816C-474.681,418.905-474.412,418.213-474.274,417.617z"/>
</svg>
