<?xml version="1.0" encoding="iso-8859-1"?>
<!-- Generator: Adobe Illustrator 17.0.2, SVG Export Plug-In . SVG Version: 6.00 Build 0)  -->
<!DOCTYPE svg PUBLIC "-//W3C//DTD SVG 1.1//EN" "http://www.w3.org/Graphics/SVG/1.1/DTD/svg11.dtd">
<svg version="1.1" id="Layer_1" xmlns="http://www.w3.org/2000/svg" xmlns:xlink="http://www.w3.org/1999/xlink" x="0px" y="0px"
	 width="32px" height="32px" viewBox="-495.5 400.5 32 32" style="enable-background:new -495.5 400.5 32 32;" xml:space="preserve"
	>
<g>
	<path d="M-470.445,424.754c-4.196-1.529-5.537-2.819-5.537-5.581c0-1.658,1.282-1.117,1.843-4.153
		c0.233-1.26,1.365-0.02,1.583-2.895c0-1.146-0.618-1.431-0.618-1.431s0.315-1.697,0.437-3.001c0.15-1.627-0.94-5.828-6.764-5.828
		c-5.823,0-6.916,4.201-6.763,5.828c0.123,1.304,0.437,3.001,0.437,3.001s-0.62,0.284-0.62,1.431
		c0.216,2.875,1.348,1.636,1.581,2.895c0.563,3.037,1.845,2.495,1.845,4.153c0,2.763-1.341,4.053-5.537,5.581
		c-4.211,1.532-6.945,3.096-6.945,4.163c0,1.066,0,3.583,0,3.583h32c0,0,0-2.517,0-3.583S-466.235,426.287-470.445,424.754
		L-470.445,424.754z"/>
</g>
</svg>
