
<svg xmlns="http://www.w3.org/2000/svg" version="1.1" xmlns:xlink="http://www.w3.org/1999/xlink" preserveAspectRatio="none" x="0px" y="0px" width="300px" height="250px" viewBox="0 0 300 250">
<defs>
<g id="Layer3_0_FILL">
<path fill="#485979" stroke="none" d="
M 300 41.55
Q 300 34.1 292.5 34.1
L 7.45 34.1
Q 0 34.1 0 41.55
L 0 206.45
Q 0 213.95 7.45 213.95
L 292.5 213.95
Q 300 213.95 300 206.45
L 300 41.55
M 287.55 64.4
Q 292.5 64.4 292.5 69.35
L 292.5 201.5
Q 292.5 206.45 287.55 206.45
L 10.8 206.45
Q 5.85 206.45 5.85 201.5
L 5.85 69.35
Q 5.85 64.4 10.8 64.4
L 287.55 64.4
M 47.2 44.7
Q 49.6 44.7 51.2 46.3 52.95 48.05 52.95 50.4 52.95 52.8 51.2 54.4 49.6 56.15 47.2 56.15 44.85 56.15 43.1 54.4 41.5 52.8 41.5 50.4 41.5 48.05 43.1 46.3 44.85 44.7 47.2 44.7
M 12.8 44.7
Q 15.2 44.7 16.8 46.3 18.55 48.05 18.55 50.4 18.55 52.8 16.8 54.4 15.2 56.15 12.8 56.15 10.45 56.15 8.7 54.4 7.1 52.8 7.1 50.4 7.1 48.05 8.7 46.3 10.45 44.7 12.8 44.7
M 26.15 46.3
Q 27.9 44.7 30.25 44.7 32.65 44.7 34.25 46.3 36 48.05 36 50.4 36 52.8 34.25 54.4 32.65 56.15 30.25 56.15 27.9 56.15 26.15 54.4 24.55 52.8 24.55 50.4 24.55 48.05 26.15 46.3 Z"/>

<path fill="#C8E3F3" stroke="none" d="
M 30.25 44.7
Q 27.9 44.7 26.15 46.3 24.55 48.05 24.55 50.4 24.55 52.8 26.15 54.4 27.9 56.15 30.25 56.15 32.65 56.15 34.25 54.4 36 52.8 36 50.4 36 48.05 34.25 46.3 32.65 44.7 30.25 44.7
M 16.8 46.3
Q 15.2 44.7 12.8 44.7 10.45 44.7 8.7 46.3 7.1 48.05 7.1 50.4 7.1 52.8 8.7 54.4 10.45 56.15 12.8 56.15 15.2 56.15 16.8 54.4 18.55 52.8 18.55 50.4 18.55 48.05 16.8 46.3
M 51.2 46.3
Q 49.6 44.7 47.2 44.7 44.85 44.7 43.1 46.3 41.5 48.05 41.5 50.4 41.5 52.8 43.1 54.4 44.85 56.15 47.2 56.15 49.6 56.15 51.2 54.4 52.95 52.8 52.95 50.4 52.95 48.05 51.2 46.3
M 292.5 69.35
Q 292.5 64.4 287.55 64.4
L 10.8 64.4
Q 5.85 64.4 5.85 69.35
L 5.85 201.5
Q 5.85 206.45 10.8 206.45
L 287.55 206.45
Q 292.5 206.45 292.5 201.5
L 292.5 69.35 Z"/>
</g>

<g id="Layer3_1_FILL">
<path fill="#5182B9" stroke="none" d="
M 115.3 113.65
L 108.95 113.65 108.95 116.45 115.3 116.45 115.3 113.65
M 124.25 111.65
L 124.25 108.85 113.45 108.85 113.45 111.65 124.25 111.65
M 129.65 107.45
L 129.65 104.65 117.2 104.65 117.2 107.45 129.65 107.45
M 144.55 102.85
L 144.55 100.05 135.9 100.05 135.9 102.85 144.55 102.85
M 156.1 100.05
L 147.35 100.05 147.35 102.85 156.1 102.85 156.1 100.05
M 152.1 107.45
L 152.1 104.65 132.45 104.65 132.45 107.45 152.1 107.45
M 147 73.15
L 124.8 73.15 124.8 75.95 147 75.95 147 73.15
M 146.95 86.55
L 146.95 89.35 158 89.35 158 86.55 146.95 86.55
M 128.1 86.55
L 128.1 89.35 144.15 89.35 144.15 86.55 128.1 86.55
M 139.45 95.65
L 132.25 95.65 132.25 98.45 139.45 98.45 139.45 95.65
M 132.45 77.4
L 132.45 80.2 151.25 80.2 151.25 77.4 132.45 77.4
M 139.8 84.8
L 139.8 82 128.1 82 128.1 84.8 139.8 84.8
M 145.3 71.4
L 145.3 68.6 140.7 68.6 140.7 71.4 145.3 71.4
M 113.45 73.15
L 113.45 75.95 122 75.95 122 73.15 113.45 73.15
M 113.45 95.65
L 113.45 98.45 129.45 98.45 129.45 95.65 113.45 95.65
M 117.5 93.55
L 117.5 90.75 113.45 90.75 113.45 93.55 117.5 93.55
M 120.3 90.75
L 120.3 93.55 151.25 93.55 151.25 90.75 120.3 90.75
M 117.2 82
L 117.2 84.8 125.3 84.8 125.3 82 117.2 82
M 117.2 77.4
L 117.2 80.2 129.65 80.2 129.65 77.4 117.2 77.4
M 108.95 68.6
L 108.95 71.4 116.35 71.4 116.35 68.6 108.95 68.6
M 162.85 107.45
L 162.85 104.65 154.9 104.65 154.9 107.45 162.85 107.45
M 164.45 75.95
L 164.45 73.15 149.8 73.15 149.8 75.95 164.45 75.95
M 167.4 98.45
L 167.4 95.65 142.25 95.65 142.25 98.45 167.4 98.45
M 165.3 90.75
L 165.3 93.55 185.1 93.55 185.1 90.75 165.3 90.75
M 181.25 80.2
L 181.25 77.4 164.45 77.4 164.45 80.2 181.25 80.2 Z"/>

<path fill="#CD6552" stroke="none" d="
M 132.25 108.85
L 127.05 108.85 127.05 111.65 132.25 111.65 132.25 108.85
M 133.1 102.85
L 133.1 100.05 117.2 100.05 117.2 102.85 133.1 102.85
M 150 82
L 142.6 82 142.6 84.8 150 84.8 150 82
M 154.05 77.4
L 154.05 80.2 161.65 80.2 161.65 77.4 154.05 77.4
M 117.2 86.55
L 117.2 89.35 125.3 89.35 125.3 86.55 117.2 86.55
M 119.15 68.6
L 119.15 71.4 137.9 71.4 137.9 68.6 119.15 68.6
M 162.5 93.55
L 162.5 90.75 154.05 90.75 154.05 93.55 162.5 93.55
M 170.2 95.65
L 170.2 98.45 174.45 98.45 174.45 95.65 170.2 95.65 Z"/>
</g>
</defs>

<g transform="matrix( 1, 0, 0, 1, 0,0) ">
<use xlink:href="#Layer3_0_FILL"/>
</g>

<g transform="matrix( 2.4929351806640625, 0, 0, 2.4929351806640625, -249.9,-94.3) ">
<use xlink:href="#Layer3_1_FILL"/>
</g>
</svg>
