
<svg xmlns="http://www.w3.org/2000/svg" version="1.1" xmlns:xlink="http://www.w3.org/1999/xlink" preserveAspectRatio="none" x="0px" y="0px" width="300px" height="250px" viewBox="0 0 300 250">
<defs>
<g id="Layer3_0_MEMBER_0_FILL">
<path fill="#D6E1E6" stroke="none" d="
M 203.5 104.2
L 203.5 104.25 104 104.25 104 104.2 87.35 104.2
Q 84.1240234375 104.2 83.5 106.8 83.35 107.4259765625 83.35 108.2
L 83.35 158.2
Q 83.35 158.9740234375 83.5 159.6 84.1240234375 162.2 87.35 162.2
L 219.35 162.2
Q 223.35 162.2 223.35 158.2
L 223.35 108.2
Q 223.35 104.2 219.35 104.2
L 203.5 104.2
M 203.25 121.9
L 203.25 126.5
Q 203.25 128.05 201.7 128.05
L 191.75 128.05
Q 190.25 128.05 190.25 126.5
L 190.25 121.9
Q 190.25 120.4 191.75 120.4
L 201.7 120.4
Q 203.25 120.4 203.25 121.9
M 203.4 112.05
L 203.4 116.65
Q 203.4 118.2 201.85 118.2
L 196.7 118.2
Q 195.2 118.2 195.2 116.65
L 195.2 112.05
Q 195.2 110.55 196.7 110.55
L 201.85 110.55
Q 203.4 110.55 203.4 112.05
M 202.7 131.65
L 202.7 136.25
Q 202.7 137.8 201.15 137.8
L 194.2 137.8
Q 192.7 137.8 192.7 136.25
L 192.7 131.65
Q 192.7 130.15 194.2 130.15
L 201.15 130.15
Q 202.7 130.15 202.7 131.65
M 186.75 110.55
L 191.9 110.55
Q 193.45 110.55 193.45 112.05
L 193.45 116.65
Q 193.45 118.2 191.9 118.2
L 186.75 118.2
Q 185.25 118.2 185.25 116.65
L 185.25 112.05
Q 185.25 110.55 186.75 110.55
M 186.85 120.4
Q 188.4 120.4 188.4 121.9
L 188.4 126.5
Q 188.4 128.05 186.85 128.05
L 181.7 128.05
Q 180.2 128.05 180.2 126.5
L 180.2 121.9
Q 180.2 120.4 181.7 120.4
L 186.85 120.4
M 183.45 112.05
L 183.45 116.65
Q 183.45 118.2 181.9 118.2
L 176.75 118.2
Q 175.25 118.2 175.25 116.65
L 175.25 112.05
Q 175.25 110.55 176.75 110.55
L 181.9 110.55
Q 183.45 110.55 183.45 112.05
M 166.8 110.55
L 171.95 110.55
Q 173.5 110.55 173.5 112.05
L 173.5 116.65
Q 173.5 118.2 171.95 118.2
L 166.8 118.2
Q 165.3 118.2 165.3 116.65
L 165.3 112.05
Q 165.3 110.55 166.8 110.55
M 163.4 112.05
L 163.4 116.65
Q 163.4 118.2 161.85 118.2
L 156.7 118.2
Q 155.2 118.2 155.2 116.65
L 155.2 112.05
Q 155.2 110.55 156.7 110.55
L 161.85 110.55
Q 163.4 110.55 163.4 112.05
M 166.85 120.4
Q 168.4 120.4 168.4 121.9
L 168.4 126.5
Q 168.4 128.05 166.85 128.05
L 161.7 128.05
Q 160.2 128.05 160.2 126.5
L 160.2 121.9
Q 160.2 120.4 161.7 120.4
L 166.85 120.4
M 170.25 121.9
Q 170.25 120.4 171.75 120.4
L 176.9 120.4
Q 178.45 120.4 178.45 121.9
L 178.45 126.5
Q 178.45 128.05 176.9 128.05
L 171.75 128.05
Q 170.25 128.05 170.25 126.5
L 170.25 121.9
M 172.8 131.65
Q 172.8 130.15 174.3 130.15
L 179.45 130.15
Q 181 130.15 181 131.65
L 181 136.25
Q 181 137.8 179.45 137.8
L 174.3 137.8
Q 172.8 137.8 172.8 136.25
L 172.8 131.65
M 162.65 131.65
Q 162.65 130.15 164.15 130.15
L 169.3 130.15
Q 170.85 130.15 170.85 131.65
L 170.85 136.25
Q 170.85 137.8 169.3 137.8
L 164.15 137.8
Q 162.65 137.8 162.65 136.25
L 162.65 131.65
M 167.75 141.35
Q 167.75 139.85 169.25 139.85
L 174.4 139.85
Q 175.95 139.85 175.95 141.35
L 175.95 145.95
Q 175.95 147.5 174.4 147.5
L 169.25 147.5
Q 167.75 147.5 167.75 145.95
L 167.75 141.35
M 164.3 139.85
Q 165.85 139.85 165.85 141.35
L 165.85 145.95
Q 165.85 147.5 164.3 147.5
L 159.15 147.5
Q 157.65 147.5 157.65 145.95
L 157.65 141.35
Q 157.65 139.85 159.15 139.85
L 164.3 139.85
M 177.65 141.35
Q 177.65 139.85 179.15 139.85
L 184.3 139.85
Q 185.85 139.85 185.85 141.35
L 185.85 145.95
Q 185.85 147.5 184.3 147.5
L 179.15 147.5
Q 177.65 147.5 177.65 145.95
L 177.65 141.35
M 182.7 131.65
Q 182.7 130.15 184.2 130.15
L 189.35 130.15
Q 190.9 130.15 190.9 131.65
L 190.9 136.25
Q 190.9 137.8 189.35 137.8
L 184.2 137.8
Q 182.7 137.8 182.7 136.25
L 182.7 131.65
M 187.7 141.35
Q 187.7 139.85 189.2 139.85
L 194.35 139.85
Q 195.9 139.85 195.9 141.35
L 195.9 145.95
Q 195.9 147.5 194.35 147.5
L 189.2 147.5
Q 187.7 147.5 187.7 145.95
L 187.7 141.35
M 175.75 155.8
Q 175.75 157.35 174.2 157.35
L 129.55 157.35
Q 128.05 157.35 128.05 155.8
L 128.05 151.2
Q 128.05 149.7 129.55 149.7
L 174.2 149.7
Q 175.75 149.7 175.75 151.2
L 175.75 155.8
M 150.25 121.9
Q 150.25 120.4 151.75 120.4
L 156.9 120.4
Q 158.45 120.4 158.45 121.9
L 158.45 126.5
Q 158.45 128.05 156.9 128.05
L 151.75 128.05
Q 150.25 128.05 150.25 126.5
L 150.25 121.9
M 146.85 120.4
Q 148.4 120.4 148.4 121.9
L 148.4 126.5
Q 148.4 128.05 146.85 128.05
L 141.7 128.05
Q 140.2 128.05 140.2 126.5
L 140.2 121.9
Q 140.2 120.4 141.7 120.4
L 146.85 120.4
M 143.45 116.65
Q 143.45 118.2 141.9 118.2
L 136.75 118.2
Q 135.25 118.2 135.25 116.65
L 135.25 112.05
Q 135.25 110.55 136.75 110.55
L 141.9 110.55
Q 143.45 110.55 143.45 112.05
L 143.45 116.65
M 145.3 116.65
L 145.3 112.05
Q 145.3 110.55 146.8 110.55
L 151.95 110.55
Q 153.5 110.55 153.5 112.05
L 153.5 116.65
Q 153.5 118.2 151.95 118.2
L 146.8 118.2
Q 145.3 118.2 145.3 116.65
M 123.55 116.65
Q 123.55 118.2 122 118.2
L 116.85 118.2
Q 115.35 118.2 115.35 116.65
L 115.35 112.05
Q 115.35 110.55 116.85 110.55
L 122 110.55
Q 123.55 110.55 123.55 112.05
L 123.55 116.65
M 125.35 116.65
L 125.35 112.05
Q 125.35 110.55 126.85 110.55
L 132 110.55
Q 133.55 110.55 133.55 112.05
L 133.55 116.65
Q 133.55 118.2 132 118.2
L 126.85 118.2
Q 125.35 118.2 125.35 116.65
M 121.8 120.4
L 126.95 120.4
Q 128.5 120.4 128.5 121.9
L 128.5 126.5
Q 128.5 128.05 126.95 128.05
L 121.8 128.05
Q 120.3 128.05 120.3 126.5
L 120.3 121.9
Q 120.3 120.4 121.8 120.4
M 131.8 120.4
L 136.95 120.4
Q 138.5 120.4 138.5 121.9
L 138.5 126.5
Q 138.5 128.05 136.95 128.05
L 131.8 128.05
Q 130.3 128.05 130.3 126.5
L 130.3 121.9
Q 130.3 120.4 131.8 120.4
M 132.8 131.65
Q 132.8 130.15 134.3 130.15
L 139.45 130.15
Q 141 130.15 141 131.65
L 141 136.25
Q 141 137.8 139.45 137.8
L 134.3 137.8
Q 132.8 137.8 132.8 136.25
L 132.8 131.65
M 124.3 130.15
L 129.45 130.15
Q 131 130.15 131 131.65
L 131 136.25
Q 131 137.8 129.45 137.8
L 124.3 137.8
Q 122.8 137.8 122.8 136.25
L 122.8 131.65
Q 122.8 130.15 124.3 130.15
M 127.8 141.35
Q 127.8 139.85 129.3 139.85
L 134.45 139.85
Q 136 139.85 136 141.35
L 136 145.95
Q 136 147.5 134.45 147.5
L 129.3 147.5
Q 127.8 147.5 127.8 145.95
L 127.8 141.35
M 124.35 139.85
Q 125.9 139.85 125.9 141.35
L 125.9 145.95
Q 125.9 147.5 124.35 147.5
L 119.2 147.5
Q 117.7 147.5 117.7 145.95
L 117.7 141.35
Q 117.7 139.85 119.2 139.85
L 124.35 139.85
M 137.7 141.35
Q 137.7 139.85 139.2 139.85
L 144.35 139.85
Q 145.9 139.85 145.9 141.35
L 145.9 145.95
Q 145.9 147.5 144.35 147.5
L 139.2 147.5
Q 137.7 147.5 137.7 145.95
L 137.7 141.35
M 152.75 131.65
Q 152.75 130.15 154.25 130.15
L 159.4 130.15
Q 160.95 130.15 160.95 131.65
L 160.95 136.25
Q 160.95 137.8 159.4 137.8
L 154.25 137.8
Q 152.75 137.8 152.75 136.25
L 152.75 131.65
M 142.7 131.65
Q 142.7 130.15 144.2 130.15
L 149.35 130.15
Q 150.9 130.15 150.9 131.65
L 150.9 136.25
Q 150.9 137.8 149.35 137.8
L 144.2 137.8
Q 142.7 137.8 142.7 136.25
L 142.7 131.65
M 147.7 141.35
Q 147.7 139.85 149.2 139.85
L 154.35 139.85
Q 155.9 139.85 155.9 141.35
L 155.9 145.95
Q 155.9 147.5 154.35 147.5
L 149.2 147.5
Q 147.7 147.5 147.7 145.95
L 147.7 141.35
M 105.4 122
Q 105.4 120.5 106.9 120.5
L 117 120.5
Q 118.55 120.5 118.55 122
L 118.55 126.6
Q 118.55 128.15 117 128.15
L 106.9 128.15
Q 105.4 128.15 105.4 126.6
L 105.4 122
M 105.4 116.65
L 105.4 112.05
Q 105.4 110.55 106.9 110.55
L 112.05 110.55
Q 113.6 110.55 113.6 112.05
L 113.6 116.65
Q 113.6 118.2 112.05 118.2
L 106.9 118.2
Q 105.4 118.2 105.4 116.65
M 119.4 130.25
Q 120.95 130.25 120.95 131.75
L 120.95 136.35
Q 120.95 137.9 119.4 137.9
L 107 137.9
Q 105.5 137.9 105.5 136.35
L 105.5 131.75
Q 105.5 130.25 107 130.25
L 119.4 130.25
M 105.4 141.35
Q 105.4 139.85 106.9 139.85
L 114.55 139.85
Q 116.05 139.85 116.05 141.35
L 116.05 145.95
Q 116.05 147.5 114.55 147.5
L 106.9 147.5
Q 105.4 147.5 105.4 145.95
L 105.4 141.35 Z"/>

<path fill="#EFEFEF" stroke="none" d="
M 106.9 139.85
Q 105.4 139.85 105.4 141.35
L 105.4 145.95
Q 105.4 147.5 106.9 147.5
L 114.55 147.5
Q 116.05 147.5 116.05 145.95
L 116.05 141.35
Q 116.05 139.85 114.55 139.85
L 106.9 139.85
M 120.95 131.75
Q 120.95 130.25 119.4 130.25
L 107 130.25
Q 105.5 130.25 105.5 131.75
L 105.5 136.35
Q 105.5 137.9 107 137.9
L 119.4 137.9
Q 120.95 137.9 120.95 136.35
L 120.95 131.75
M 105.4 112.05
L 105.4 116.65
Q 105.4 118.2 106.9 118.2
L 112.05 118.2
Q 113.6 118.2 113.6 116.65
L 113.6 112.05
Q 113.6 110.55 112.05 110.55
L 106.9 110.55
Q 105.4 110.55 105.4 112.05
M 106.9 120.5
Q 105.4 120.5 105.4 122
L 105.4 126.6
Q 105.4 128.15 106.9 128.15
L 117 128.15
Q 118.55 128.15 118.55 126.6
L 118.55 122
Q 118.55 120.5 117 120.5
L 106.9 120.5
M 149.2 139.85
Q 147.7 139.85 147.7 141.35
L 147.7 145.95
Q 147.7 147.5 149.2 147.5
L 154.35 147.5
Q 155.9 147.5 155.9 145.95
L 155.9 141.35
Q 155.9 139.85 154.35 139.85
L 149.2 139.85
M 144.2 130.15
Q 142.7 130.15 142.7 131.65
L 142.7 136.25
Q 142.7 137.8 144.2 137.8
L 149.35 137.8
Q 150.9 137.8 150.9 136.25
L 150.9 131.65
Q 150.9 130.15 149.35 130.15
L 144.2 130.15
M 154.25 130.15
Q 152.75 130.15 152.75 131.65
L 152.75 136.25
Q 152.75 137.8 154.25 137.8
L 159.4 137.8
Q 160.95 137.8 160.95 136.25
L 160.95 131.65
Q 160.95 130.15 159.4 130.15
L 154.25 130.15
M 139.2 139.85
Q 137.7 139.85 137.7 141.35
L 137.7 145.95
Q 137.7 147.5 139.2 147.5
L 144.35 147.5
Q 145.9 147.5 145.9 145.95
L 145.9 141.35
Q 145.9 139.85 144.35 139.85
L 139.2 139.85
M 125.9 141.35
Q 125.9 139.85 124.35 139.85
L 119.2 139.85
Q 117.7 139.85 117.7 141.35
L 117.7 145.95
Q 117.7 147.5 119.2 147.5
L 124.35 147.5
Q 125.9 147.5 125.9 145.95
L 125.9 141.35
M 129.3 139.85
Q 127.8 139.85 127.8 141.35
L 127.8 145.95
Q 127.8 147.5 129.3 147.5
L 134.45 147.5
Q 136 147.5 136 145.95
L 136 141.35
Q 136 139.85 134.45 139.85
L 129.3 139.85
M 129.45 130.15
L 124.3 130.15
Q 122.8 130.15 122.8 131.65
L 122.8 136.25
Q 122.8 137.8 124.3 137.8
L 129.45 137.8
Q 131 137.8 131 136.25
L 131 131.65
Q 131 130.15 129.45 130.15
M 134.3 130.15
Q 132.8 130.15 132.8 131.65
L 132.8 136.25
Q 132.8 137.8 134.3 137.8
L 139.45 137.8
Q 141 137.8 141 136.25
L 141 131.65
Q 141 130.15 139.45 130.15
L 134.3 130.15
M 136.95 120.4
L 131.8 120.4
Q 130.3 120.4 130.3 121.9
L 130.3 126.5
Q 130.3 128.05 131.8 128.05
L 136.95 128.05
Q 138.5 128.05 138.5 126.5
L 138.5 121.9
Q 138.5 120.4 136.95 120.4
M 126.95 120.4
L 121.8 120.4
Q 120.3 120.4 120.3 121.9
L 120.3 126.5
Q 120.3 128.05 121.8 128.05
L 126.95 128.05
Q 128.5 128.05 128.5 126.5
L 128.5 121.9
Q 128.5 120.4 126.95 120.4
M 125.35 112.05
L 125.35 116.65
Q 125.35 118.2 126.85 118.2
L 132 118.2
Q 133.55 118.2 133.55 116.65
L 133.55 112.05
Q 133.55 110.55 132 110.55
L 126.85 110.55
Q 125.35 110.55 125.35 112.05
M 122 118.2
Q 123.55 118.2 123.55 116.65
L 123.55 112.05
Q 123.55 110.55 122 110.55
L 116.85 110.55
Q 115.35 110.55 115.35 112.05
L 115.35 116.65
Q 115.35 118.2 116.85 118.2
L 122 118.2
M 145.3 112.05
L 145.3 116.65
Q 145.3 118.2 146.8 118.2
L 151.95 118.2
Q 153.5 118.2 153.5 116.65
L 153.5 112.05
Q 153.5 110.55 151.95 110.55
L 146.8 110.55
Q 145.3 110.55 145.3 112.05
M 141.9 118.2
Q 143.45 118.2 143.45 116.65
L 143.45 112.05
Q 143.45 110.55 141.9 110.55
L 136.75 110.55
Q 135.25 110.55 135.25 112.05
L 135.25 116.65
Q 135.25 118.2 136.75 118.2
L 141.9 118.2
M 148.4 121.9
Q 148.4 120.4 146.85 120.4
L 141.7 120.4
Q 140.2 120.4 140.2 121.9
L 140.2 126.5
Q 140.2 128.05 141.7 128.05
L 146.85 128.05
Q 148.4 128.05 148.4 126.5
L 148.4 121.9
M 151.75 120.4
Q 150.25 120.4 150.25 121.9
L 150.25 126.5
Q 150.25 128.05 151.75 128.05
L 156.9 128.05
Q 158.45 128.05 158.45 126.5
L 158.45 121.9
Q 158.45 120.4 156.9 120.4
L 151.75 120.4
M 174.2 157.35
Q 175.75 157.35 175.75 155.8
L 175.75 151.2
Q 175.75 149.7 174.2 149.7
L 129.55 149.7
Q 128.05 149.7 128.05 151.2
L 128.05 155.8
Q 128.05 157.35 129.55 157.35
L 174.2 157.35
M 189.2 139.85
Q 187.7 139.85 187.7 141.35
L 187.7 145.95
Q 187.7 147.5 189.2 147.5
L 194.35 147.5
Q 195.9 147.5 195.9 145.95
L 195.9 141.35
Q 195.9 139.85 194.35 139.85
L 189.2 139.85
M 184.2 130.15
Q 182.7 130.15 182.7 131.65
L 182.7 136.25
Q 182.7 137.8 184.2 137.8
L 189.35 137.8
Q 190.9 137.8 190.9 136.25
L 190.9 131.65
Q 190.9 130.15 189.35 130.15
L 184.2 130.15
M 179.15 139.85
Q 177.65 139.85 177.65 141.35
L 177.65 145.95
Q 177.65 147.5 179.15 147.5
L 184.3 147.5
Q 185.85 147.5 185.85 145.95
L 185.85 141.35
Q 185.85 139.85 184.3 139.85
L 179.15 139.85
M 165.85 141.35
Q 165.85 139.85 164.3 139.85
L 159.15 139.85
Q 157.65 139.85 157.65 141.35
L 157.65 145.95
Q 157.65 147.5 159.15 147.5
L 164.3 147.5
Q 165.85 147.5 165.85 145.95
L 165.85 141.35
M 169.25 139.85
Q 167.75 139.85 167.75 141.35
L 167.75 145.95
Q 167.75 147.5 169.25 147.5
L 174.4 147.5
Q 175.95 147.5 175.95 145.95
L 175.95 141.35
Q 175.95 139.85 174.4 139.85
L 169.25 139.85
M 164.15 130.15
Q 162.65 130.15 162.65 131.65
L 162.65 136.25
Q 162.65 137.8 164.15 137.8
L 169.3 137.8
Q 170.85 137.8 170.85 136.25
L 170.85 131.65
Q 170.85 130.15 169.3 130.15
L 164.15 130.15
M 174.3 130.15
Q 172.8 130.15 172.8 131.65
L 172.8 136.25
Q 172.8 137.8 174.3 137.8
L 179.45 137.8
Q 181 137.8 181 136.25
L 181 131.65
Q 181 130.15 179.45 130.15
L 174.3 130.15
M 171.75 120.4
Q 170.25 120.4 170.25 121.9
L 170.25 126.5
Q 170.25 128.05 171.75 128.05
L 176.9 128.05
Q 178.45 128.05 178.45 126.5
L 178.45 121.9
Q 178.45 120.4 176.9 120.4
L 171.75 120.4
M 168.4 121.9
Q 168.4 120.4 166.85 120.4
L 161.7 120.4
Q 160.2 120.4 160.2 121.9
L 160.2 126.5
Q 160.2 128.05 161.7 128.05
L 166.85 128.05
Q 168.4 128.05 168.4 126.5
L 168.4 121.9
M 163.4 116.65
L 163.4 112.05
Q 163.4 110.55 161.85 110.55
L 156.7 110.55
Q 155.2 110.55 155.2 112.05
L 155.2 116.65
Q 155.2 118.2 156.7 118.2
L 161.85 118.2
Q 163.4 118.2 163.4 116.65
M 171.95 110.55
L 166.8 110.55
Q 165.3 110.55 165.3 112.05
L 165.3 116.65
Q 165.3 118.2 166.8 118.2
L 171.95 118.2
Q 173.5 118.2 173.5 116.65
L 173.5 112.05
Q 173.5 110.55 171.95 110.55
M 183.45 116.65
L 183.45 112.05
Q 183.45 110.55 181.9 110.55
L 176.75 110.55
Q 175.25 110.55 175.25 112.05
L 175.25 116.65
Q 175.25 118.2 176.75 118.2
L 181.9 118.2
Q 183.45 118.2 183.45 116.65
M 188.4 121.9
Q 188.4 120.4 186.85 120.4
L 181.7 120.4
Q 180.2 120.4 180.2 121.9
L 180.2 126.5
Q 180.2 128.05 181.7 128.05
L 186.85 128.05
Q 188.4 128.05 188.4 126.5
L 188.4 121.9
M 191.9 110.55
L 186.75 110.55
Q 185.25 110.55 185.25 112.05
L 185.25 116.65
Q 185.25 118.2 186.75 118.2
L 191.9 118.2
Q 193.45 118.2 193.45 116.65
L 193.45 112.05
Q 193.45 110.55 191.9 110.55
M 202.7 136.25
L 202.7 131.65
Q 202.7 130.15 201.15 130.15
L 194.2 130.15
Q 192.7 130.15 192.7 131.65
L 192.7 136.25
Q 192.7 137.8 194.2 137.8
L 201.15 137.8
Q 202.7 137.8 202.7 136.25
M 203.4 116.65
L 203.4 112.05
Q 203.4 110.55 201.85 110.55
L 196.7 110.55
Q 195.2 110.55 195.2 112.05
L 195.2 116.65
Q 195.2 118.2 196.7 118.2
L 201.85 118.2
Q 203.4 118.2 203.4 116.65
M 203.25 126.5
L 203.25 121.9
Q 203.25 120.4 201.7 120.4
L 191.75 120.4
Q 190.25 120.4 190.25 121.9
L 190.25 126.5
Q 190.25 128.05 191.75 128.05
L 201.7 128.05
Q 203.25 128.05 203.25 126.5 Z"/>

<path fill="#B6C8CD" stroke="none" d="
M 203.5 104.25
L 203.5 104.2 104 104.2 104 104.25 203.5 104.25 Z"/>
</g>

<g id="Layer3_0_MEMBER_1_FILL">
<path fill="#465773" stroke="none" d="
M 106.6 233.25
Q 105.86796875 232.5068359375 105.1 231.8 94.5642578125 221.82734375 78.75 216.85 75.134765625 215.596875 72.45 215.55 68.3064453125 215.5626953125 66.5 218.6 55.7466796875 233.320703125 46.15 250
L 100.1 250
Q 102.4265625 242.0638671875 106.6 233.25
M 233.3 210.15
Q 232.02265625 210.26328125 230.75 210.4 209.2916015625 212.7345703125 195.4 228.35 194.0341796875 229.8978515625 195.5 235.15 199.4646484375 242.693359375 201.05 250
L 256.4 250
Q 243.51875 230.45 233.3 210.15 Z"/>

<path fill="#DDB48F" stroke="none" d="
M 127.55 137.65
Q 127.537890625 134.5515625 123 135.15 118.4556640625 135.79921875 115.5 135.7 112.5939453125 135.5958984375 109.85 140.6 108.287109375 143.5576171875 106 144.75 101.3578125 138.28828125 95.9 144.1 94.00078125 146.248046875 92.5 145.7 88.0408203125 141.1392578125 82.8 150.95 79.3859375 157.1759765625 77.55 179.5 76.446875 193.711328125 76.55 206.2
L 72.45 215.55
Q 75.134765625 215.596875 78.75 216.85 94.5642578125 221.82734375 105.1 231.8 111.5373046875 218.573046875 118.85 214.1 130.8494140625 206.251171875 135.25 197.2
L 141.35 186.75
Q 144.6423828125 183.0779296875 142.25 178.1 141.67265625 172.643359375 142.35 166.05 141.5296875 158.6443359375 133.05 170 129.793359375 175.646484375 131.4 180 129.1591796875 184.143359375 125.7 186.1 122.6126953125 184.3927734375 127.5 161.1 127.9974609375 158.840625 129.9 156.2 129.9625 156.15234375 131.1 154.45 132.2328125 152.80078125 133.45 151.35 134.730078125 149.9515625 135.05 149.55 135.360546875 149.1955078125 137.5 147.25 139.640234375 145.305078125 140 144.2 142.608984375 137.003515625 131.95 140.8 129.5236328125 141.23515625 126.85 145.5 122.818359375 147.4841796875 121 151.9
L 112.2 160
Q 112.2 156.4 115.85 149.4 116.653515625 147.86484375 117.05 146.75 117.1615234375 146.57578125 117.2 146.4 118.9728515625 142.9685546875 121.75 142.4 127.94765625 141.6734375 127.55 137.65
M 212.2 146.55
Q 210.0591796875 147.36171875 209.45 145.3 208.4 143 204.8 142.6 201.5 142.2 200 143.45 198.55 144.65 197.8 144.7 196.9 144.8 196.1 143.4 193.15 138.15 191.95 137.45 187.65 134.85 183.7 137.3 181.2 140.3 181.8 142.25 182.05 142.95 182.3 143.2 182.6 143.5 183.7 143.85 184.75 144.25 186.7 144.05
L 189 151.95
Q 190.6884765625 160.830859375 189 160.8 187.19375 159.873828125 184.8 153.75 183.744140625 150.051171875 180.85 145.75 177.7720703125 141.1642578125 174 141.7 169.1458984375 142.3775390625 173.5 147.5 175.1068359375 151.5501953125 176.1 155.6 176.1865234375 155.9876953125 176.25 156.35 176.0775390625 164.387109375 177.5 169 179.777734375 175.2 180.6 181.4 180.4712890625 184.9828125 177.8 184.5 175.253515625 183.4525390625 175.4 176.5 176.9419921875 170.28984375 169.35 163.8 166.171875 161.196484375 166.15 165.3 166.7861328125 170.452734375 165.65 174.8 163.07421875 180.4947265625 166.55 184 167.5890625 190.735546875 170 195.65 172.9392578125 203.8828125 181.3 208.8
L 190 215.55
Q 193.594140625 217.2181640625 195.4 228.35 209.2916015625 212.7345703125 230.75 210.4 228.830859375 206.758984375 228.4 201
L 229.4 175.05
Q 229.4654296875 174.165234375 222.45 151.65 218.628125 143.034765625 212.2 146.55 Z"/>
</g>
</defs>

<g transform="matrix( 1.439727783203125, 0, 0, 1.439727783203125, -66.5,-89.6) ">
<use xlink:href="#Layer3_0_MEMBER_0_FILL"/>
</g>

<g transform="matrix( 1.439727783203125, 0, 0, 1.439727783203125, -66.5,-109.95) ">
<use xlink:href="#Layer3_0_MEMBER_1_FILL"/>
</g>
</svg>
