<?xml version="1.0" encoding="iso-8859-1"?>
<!-- Generator: Adobe Illustrator 17.0.2, SVG Export Plug-In . SVG Version: 6.00 Build 0)  -->
<!DOCTYPE svg PUBLIC "-//W3C//DTD SVG 1.1//EN" "http://www.w3.org/Graphics/SVG/1.1/DTD/svg11.dtd">
<svg version="1.1" xmlns="http://www.w3.org/2000/svg" xmlns:xlink="http://www.w3.org/1999/xlink" x="0px" y="0px" width="32px"
	 height="32px" viewBox="-495.5 400.5 32 32" style="enable-background:new -495.5 400.5 32 32;" xml:space="preserve">
<g id="actions">
</g>
<g id="Layer_1">
	<path d="M-466.867,417.121c0.001-0.056,0.004-0.111,0.004-0.166c0-2.026-0.479-3.938-1.327-5.635l2.436-2.67
		c-0.731-1.839-2.625-3.289-2.625-3.289l-3.112,1.821c-1.529-1.254-3.357-2.155-5.361-2.582l-0.568-3.569
		c-1.894-0.575-4.208,0-4.208,0l-0.517,3.569c-2.004,0.427-3.833,1.329-5.362,2.583l-3.146-1.781c-1.63,1.122-2.624,3.29-2.624,3.29
		l2.468,2.63c-0.847,1.696-1.325,3.608-1.325,5.633c0,0.056,0.003,0.112,0.004,0.168l-3.357,1.35
		c-0.139,1.974,0.937,4.103,0.937,4.103l3.595-0.29c0.854,1.832,2.134,3.423,3.712,4.65l-1.038,3.466
		c1.456,1.34,3.792,1.825,3.792,1.825l2.015-2.992c0.954,0.23,1.95,0.356,2.975,0.356c1.026,0,2.022-0.125,2.977-0.356l2.061,2.97
		c1.956-0.303,3.791-1.827,3.791-1.827l-1.084-3.442c1.579-1.227,2.859-2.819,3.712-4.651l3.607,0.24
		c0.982-1.718,0.935-4.103,0.935-4.103L-466.867,417.121z M-484.449,416.954c0-2.734,2.216-4.95,4.95-4.95
		c2.734,0,4.951,2.216,4.951,4.95s-2.217,4.95-4.951,4.95C-482.233,421.905-484.449,419.688-484.449,416.954z"/>
</g>
</svg>
