<?xml version="1.0" encoding="iso-8859-1"?>
<!-- Generator: Adobe Illustrator 17.0.2, SVG Export Plug-In . SVG Version: 6.00 Build 0)  -->
<!DOCTYPE svg PUBLIC "-//W3C//DTD SVG 1.1//EN" "http://www.w3.org/Graphics/SVG/1.1/DTD/svg11.dtd">
<svg version="1.1" id="alerts" xmlns="http://www.w3.org/2000/svg" xmlns:xlink="http://www.w3.org/1999/xlink" x="0px" y="0px"
	 width="32px" height="32px" viewBox="-495.5 400.5 32 32" style="enable-background:new -495.5 400.5 32 32;" xml:space="preserve"
	>
<path d="M-479.5,427.38c-1.077,0-2.084,0.025-3.028,0.067c0.273,0.805,0.857,1.464,1.609,1.838c0.428,0.213,0.909,0.335,1.419,0.335
	s0.991-0.123,1.419-0.335c0.753-0.374,1.336-1.033,1.609-1.838C-477.415,427.405-478.422,427.38-479.5,427.38z"/>
<path d="M-463.997,427.132L-463.997,427.132c-6.629-8.658-1.637-21.964-12.628-23.846c-0.05-1.544-1.319-2.786-2.875-2.786
	s-2.825,1.242-2.875,2.786c-10.991,1.882-5.999,15.188-12.628,23.846h0.001c-0.318,0.357-0.497,0.758-0.497,1.208
	c0,4.043,14.362,4.16,16,4.16s16-0.117,16-4.16C-463.5,427.89-463.679,427.489-463.997,427.132z M-479.5,401.78
	c0.794,0,1.451,0.584,1.574,1.344c-0.497-0.041-1.019-0.064-1.574-0.064s-1.077,0.023-1.574,0.064
	C-480.951,402.364-480.294,401.78-479.5,401.78z M-479.5,430.58c-8.289,0-13.313-1.393-14.036-2.24
	c0.723-0.847,5.748-2.24,14.036-2.24s13.313,1.393,14.036,2.24C-466.187,429.187-471.211,430.58-479.5,430.58z"/>
</svg>
