<?xml version="1.0" encoding="iso-8859-1"?>
<!-- Generator: Adobe Illustrator 17.0.2, SVG Export Plug-In . SVG Version: 6.00 Build 0)  -->
<!DOCTYPE svg PUBLIC "-//W3C//DTD SVG 1.1//EN" "http://www.w3.org/Graphics/SVG/1.1/DTD/svg11.dtd">
<svg version="1.1" id="apps" xmlns="http://www.w3.org/2000/svg" xmlns:xlink="http://www.w3.org/1999/xlink" x="0px" y="0px"
	 width="32px" height="32px" viewBox="-495.5 400.5 32 32" style="enable-background:new -495.5 400.5 32 32;" xml:space="preserve"
	>
<g id="apps-icon">
	<path d="M-469.699,422.705c0.251-0.667,0.399-1.387,0.399-2.145c0-1.664-0.675-3.171-1.765-4.263l-1.544,1.544l-4.019-4.019
		l-1.42,1.421l4.021,4.02l-2.6,2.599l-4.02-4.021l-1.42,1.421l4.02,4.019l-1.544,1.544c1.093,1.091,2.6,1.764,4.265,1.764
		c1.089,0,2.111-0.293,2.992-0.8c2.525,1.729,5.563,2.759,8.833,2.805v-4.021C-465.78,424.53-467.899,423.85-469.699,422.705z"/>
	<path d="M-488.503,412.023c-1.285,1.823-1.152,2.363-1.26,3.016c-0.359,2.192,1.825,3.721,2.64,4.539l8.955-8.952
		c-0.819-0.819-1.713-2.761-4.477-2.605c-1.593,0.089-2.703,1.06-3.313,1.369l-1.5-1.469c-2.077-2.077-4.908-3.393-8.041-3.515
		v3.824c2.131,0.151,3.999,0.857,5.441,2.3L-488.503,412.023z"/>
</g>
</svg>
