<?xml version="1.0" encoding="iso-8859-1"?>
<!-- Generator: Adobe Illustrator 17.0.2, SVG Export Plug-In . SVG Version: 6.00 Build 0)  -->
<!DOCTYPE svg PUBLIC "-//W3C//DTD SVG 1.1//EN" "http://www.w3.org/Graphics/SVG/1.1/DTD/svg11.dtd">
<svg version="1.1" xmlns="http://www.w3.org/2000/svg" xmlns:xlink="http://www.w3.org/1999/xlink" x="0px" y="0px" width="32px"
	 height="32px" viewBox="-495.5 400.5 32 32" style="enable-background:new -495.5 400.5 32 32;" xml:space="preserve">
<g id="alerts">
</g>
<g id="Layer_1">
	<g>
		<path d="M-463.5,430.66c0,0-0.062-6.059-0.434-6.686c-0.552-0.936-1.834-1.578-4.214-2.573c-2.373-0.992-3.133-1.83-3.133-3.621
			c0-1.077,0.725-0.725,1.043-2.694c0.131-0.818,0.771-0.014,0.894-1.878c0-0.744-0.349-0.93-0.349-0.93s0.176-1.101,0.246-1.947
			c0.086-1.056-0.533-3.781-3.827-3.781c-3.294,0-3.91,2.726-3.826,3.781c0.069,0.846,0.245,1.947,0.245,1.947
			s-0.349,0.186-0.349,0.93c0.123,1.866,0.763,1.062,0.896,1.878c0.317,1.97,1.042,1.618,1.042,2.694
			c0,1.218-0.352,1.995-1.323,2.678c5.184,2.595,5.88,3.125,5.88,5.445v4.757H-463.5L-463.5,430.66z M-479.142,422.3
			c-3.166-1.322-4.176-2.438-4.176-4.827c0-1.434,0.966-0.966,1.39-3.594c0.174-1.09,1.03-0.018,1.192-2.504
			c0-0.992-0.466-1.238-0.466-1.238s0.237-1.467,0.33-2.597c0.115-1.405-0.71-5.04-5.102-5.04s-5.216,3.634-5.101,5.04
			c0.093,1.13,0.328,2.597,0.328,2.597s-0.464,0.246-0.464,1.238c0.165,2.488,1.018,1.416,1.194,2.504
			c0.424,2.627,1.39,2.158,1.39,3.594c0,2.389-1.013,3.506-4.176,4.827c-0.965,0.403-2.698,1.029-2.698,2.53v5.83h22.23
			c0,0,0-3.448,0-4.37C-473.27,424.919-475.969,423.628-479.142,422.3L-479.142,422.3z"/>
	</g>
</g>
</svg>
