<?xml version="1.0" encoding="iso-8859-1"?>
<!-- Generator: Adobe Illustrator 17.0.2, SVG Export Plug-In . SVG Version: 6.00 Build 0)  -->
<!DOCTYPE svg PUBLIC "-//W3C//DTD SVG 1.1//EN" "http://www.w3.org/Graphics/SVG/1.1/DTD/svg11.dtd">
<svg version="1.1" id="certificate" xmlns="http://www.w3.org/2000/svg" xmlns:xlink="http://www.w3.org/1999/xlink" x="0px"
	 y="0px" width="32px" height="32px" viewBox="-495.5 400.5 32 32" style="enable-background:new -495.5 400.5 32 32;"
	 xml:space="preserve">
<path d="M-470.149,425.812l-0.645,0.636l-0.641-0.636l-0.996-0.99l-2.732,6.507l1.923-0.506l0.927,1.677l1.518-3.643l1.52,3.643
	l0.927-1.677l1.923,0.506l-2.723-6.514L-470.149,425.812z"/>
<path d="M-466.774,417.887v-2.333h-2.353l-1.666-1.652l-1.663,1.652h-2.353v2.333l-1.666,1.651l1.666,1.652v2.331h2.353l0.327,0.325
	l0.065,0.066v-0.004l1.271,1.263l1.275-1.263v0.004l0.065-0.066l0.325-0.325h2.355v-2.331l1.665-1.652L-466.774,417.887z"/>
<path style="fill-rule:evenodd;clip-rule:evenodd;" d="M-487.5,406.5h10v2h-10V406.5z"/>
<path style="fill-rule:evenodd;clip-rule:evenodd;" d="M-487.5,410.5h14v2h-14V410.5z"/>
<path style="fill-rule:evenodd;clip-rule:evenodd;" d="M-487.5,414.5h10v2h-10V414.5z"/>
<path style="fill-rule:evenodd;clip-rule:evenodd;" d="M-487.5,418.5h10v2h-10V418.5z"/>
<path style="fill-rule:evenodd;clip-rule:evenodd;" d="M-487.5,422.5h10v2h-10V422.5z"/>
<polygon style="fill-rule:evenodd;clip-rule:evenodd;" points="-473.5,400.5 -493.5,400.5 -493.5,430.5 -476.5,430.5 -476.5,428.5 
	-491.5,428.5 -491.5,402.5 -475.5,402.5 -475.5,408.5 -469.5,408.5 -469.5,412.5 -467.5,412.5 -467.5,406.5 "/>
</svg>
