<?xml version="1.0" encoding="iso-8859-1"?>
<!-- Generator: Adobe Illustrator 17.0.2, SVG Export Plug-In . SVG Version: 6.00 Build 0)  -->
<!DOCTYPE svg PUBLIC "-//W3C//DTD SVG 1.1//EN" "http://www.w3.org/Graphics/SVG/1.1/DTD/svg11.dtd">
<svg version="1.1" id="circle-arrow" xmlns="http://www.w3.org/2000/svg" xmlns:xlink="http://www.w3.org/1999/xlink" x="0px"
	 y="0px" width="32px" height="32px" viewBox="-495.5 400.5 32 32" style="enable-background:new -495.5 400.5 32 32;"
	 xml:space="preserve">
<path d="M-479.5,400.5c-8.837,0-16,7.163-16,16s7.163,16,16,16s16-7.163,16-16S-470.663,400.5-479.5,400.5z M-479.574,428.648
	c-6.668,0-12.074-5.406-12.074-12.074c0-6.668,5.406-12.074,12.074-12.074s12.074,5.406,12.074,12.074
	C-467.5,423.242-472.906,428.648-479.574,428.648z"/>
<polygon points="-469.5,416.5 -479.5,406.5 -489.5,416.5 -483.5,416.5 -483.5,426.5 -475.5,426.5 -475.5,416.5 "/>
</svg>
