<?xml version="1.0" encoding="iso-8859-1"?>
<!-- Generator: Adobe Illustrator 17.0.2, SVG Export Plug-In . SVG Version: 6.00 Build 0)  -->
<!DOCTYPE svg PUBLIC "-//W3C//DTD SVG 1.1//EN" "http://www.w3.org/Graphics/SVG/1.1/DTD/svg11.dtd">
<svg version="1.1" id="deals" xmlns="http://www.w3.org/2000/svg" xmlns:xlink="http://www.w3.org/1999/xlink" x="0px" y="0px"
	 width="32px" height="32px" viewBox="-495.5 400.5 32 32" style="enable-background:new -495.5 400.5 32 32;" xml:space="preserve"
	>
<path d="M-480.116,424.073l0.119,0.097c0.16,0.126,0.349,0.187,0.537,0.187c0.257,0,0.511-0.114,0.682-0.332l0.011-0.015
	l0.012-0.012c0.297-0.38,0.234-0.93-0.143-1.23c0,0-0.063-0.051-0.17-0.136c-0.042-0.033-0.09-0.073-0.146-0.115
	c-0.021-0.018-0.042-0.036-0.065-0.055c-0.036-0.028-0.074-0.06-0.114-0.092c-0.024-0.018-0.048-0.038-0.072-0.058l-0.519,1.508
	C-480.015,423.913-480.068,423.991-480.116,424.073z"/>
<path d="M-471.617,420.129c-0.011-0.008-0.026-0.011-0.037-0.02l-7.097-5.657c-0.746,0.318-2.536,1.079-3.65,1.545
	c-0.311,0.13-0.635,0.196-0.962,0.196c-1.007,0-1.931-0.645-2.196-1.536c-0.228-0.765,0.067-1.527,0.771-1.988
	c0.431-0.283,1.275-0.9,1.962-1.408c-0.029,0.005-0.065,0.007-0.088,0.015l-3.343,1.077c-0.117,0.037-0.306,0.031-0.421-0.013
	l-1.404-0.543c-0.115-0.046-0.259,0.005-0.317,0.113l-2.963,5.348c-0.059,0.107-0.02,0.245,0.085,0.305l2.77,1.598
	c0.013,0.007,0.034,0.014,0.048,0.021l0.006-0.017c0.192-0.565,0.723-0.944,1.32-0.944c0.155,0,0.306,0.026,0.453,0.076
	c0.36,0.123,0.636,0.382,0.793,0.699c0.253-0.238,0.581-0.391,0.945-0.391c0.155,0,0.307,0.026,0.452,0.076
	c0.368,0.126,0.647,0.392,0.803,0.72c0.249-0.219,0.564-0.358,0.91-0.358c0.154,0,0.306,0.025,0.454,0.076
	c0.484,0.167,0.795,0.582,0.892,1.052c0.047,0.037,0.084,0.066,0.145,0.114c0.188-0.093,0.391-0.16,0.613-0.16
	c0.155,0,0.308,0.026,0.453,0.076c0.353,0.12,0.637,0.371,0.802,0.706c0.136,0.277,0.151,0.581,0.093,0.879
	c-0.004,0.018-0.003,0.035-0.007,0.053c0.002,0.002,0.004,0.003,0.006,0.005c0.142,0.112,1.77,1.405,1.77,1.405
	c0.378,0.3,0.927,0.238,1.224-0.14l0.01-0.013l0.001-0.004l0.012-0.014c0.299-0.377,0.233-0.928-0.144-1.225
	c0,0-3.961-3.15-4.117-3.272c-0.264-0.209,0.016-0.558,0.279-0.35c0.132,0.105,5.04,3.976,5.04,3.976
	c0.378,0.3,0.925,0.235,1.222-0.145l0.011-0.01l0.005-0.009l0.008-0.006c0.297-0.379,0.235-0.929-0.145-1.227
	c0,0-4.911-3.878-5.04-3.979c-0.264-0.209,0.012-0.559,0.274-0.35c0.073,0.059,5.94,4.69,5.94,4.69
	c0.38,0.298,0.928,0.233,1.225-0.143l0.024-0.03C-471.525,420.742-471.502,420.411-471.617,420.129z"/>
<path d="M-483.362,415.191c0.184,0,0.38-0.036,0.576-0.118c1.435-0.599,3.987-1.688,3.987-1.688c0.04-0.018,0.087-0.026,0.136-0.026
	c0.087,0,0.18,0.028,0.243,0.077l7.388,5.889c0.051,0.04,0.117,0.058,0.184,0.058c0.061,0,0.125-0.017,0.173-0.051l2.736-1.997
	c0.099-0.075,0.133-0.219,0.072-0.328l-2.962-5.349c-0.045-0.08-0.138-0.129-0.229-0.129c-0.029,0-0.058,0.005-0.086,0.015
	l-1.405,0.545c-0.05,0.02-0.114,0.029-0.18,0.029c-0.082,0-0.168-0.015-0.229-0.046l-4.168-2.023
	c-0.069-0.033-0.164-0.051-0.257-0.051c-0.057,0-0.113,0.007-0.158,0.022l-3.25,1.06c-0.116,0.037-0.293,0.129-0.392,0.202
	c0,0-2.231,1.681-3.056,2.222C-485.122,414.086-484.386,415.191-483.362,415.191z"/>
<path d="M-467.214,409.5l-2.851,1.546l0.02,0.038l3.193,5.907l0.501,0.927l2.851-1.547L-467.214,409.5z"/>
<path d="M-491.786,409.746l-3.714,6.869l2.851,1.548l3.714-6.87L-491.786,409.746z"/>
<path d="M-486.84,418.768c-0.097-0.033-0.195-0.049-0.291-0.049c-0.373,0-0.721,0.233-0.848,0.606l-0.138,0.403
	c-0.161,0.47,0.088,0.981,0.556,1.142c0.096,0.034,0.194,0.05,0.289,0.05c0.268,0,0.491-0.151,0.661-0.358l0.349-1.014
	c0.004-0.01,0.011-0.018,0.015-0.029C-486.283,419.185-486.502,418.884-486.84,418.768z"/>
<path d="M-484.65,419.153c-0.096-0.033-0.195-0.049-0.29-0.049c-0.355,0-0.677,0.223-0.818,0.566
	c-0.007,0.017-0.024,0.023-0.03,0.041l-0.382,1.114c-0.007,0.021-0.003,0.042-0.008,0.061c-0.12,0.453,0.117,0.926,0.565,1.08
	c0.096,0.034,0.194,0.049,0.291,0.049c0.262,0,0.48-0.144,0.65-0.343l0.578-1.684c0.009-0.029,0.028-0.051,0.04-0.077
	C-484.09,419.572-484.31,419.27-484.65,419.153z"/>
<path d="M-480.379,420.675c-0.096-0.034-0.196-0.05-0.293-0.05c-0.373,0-0.721,0.234-0.848,0.606l-0.632,1.846
	c-0.16,0.468,0.089,0.98,0.558,1.139c0.096,0.034,0.194,0.05,0.292,0.05c0.168,0,0.326-0.061,0.466-0.148
	c0.069-0.043,0.109-0.109,0.164-0.17c0.081-0.088,0.176-0.167,0.216-0.289l0.635-1.843c0.015-0.042,0.009-0.084,0.017-0.126
	c0.018-0.091,0.028-0.181,0.02-0.268C-479.825,421.088-480.042,420.789-480.379,420.675z"/>
<path d="M-484.255,421.993c-0.001,0.004,0,0.008-0.002,0.012c-0.152,0.467,0.096,0.971,0.56,1.13
	c0.096,0.033,0.194,0.049,0.291,0.049c0.371,0,0.719-0.235,0.847-0.608l0.633-1.842c0.16-0.47-0.089-0.98-0.558-1.142
	c-0.097-0.034-0.195-0.049-0.291-0.049c-0.343,0-0.647,0.213-0.796,0.537c-0.013,0.028-0.042,0.041-0.052,0.07L-484.255,421.993z"/>
</svg>
