<?xml version="1.0" encoding="iso-8859-1"?>
<!-- Generator: Adobe Illustrator 17.0.2, SVG Export Plug-In . SVG Version: 6.00 Build 0)  -->
<!DOCTYPE svg PUBLIC "-//W3C//DTD SVG 1.1//EN" "http://www.w3.org/Graphics/SVG/1.1/DTD/svg11.dtd">
<svg version="1.1" id="edit" xmlns="http://www.w3.org/2000/svg" xmlns:xlink="http://www.w3.org/1999/xlink" x="0px" y="0px"
	 width="32px" height="32px" viewBox="-495.5 400.5 32 32" style="enable-background:new -495.5 400.5 32 32;" xml:space="preserve"
	>
<g>
	<path d="M-473.323,404.105c-0.062-0.061-0.162-0.061-0.224,0l-18.312,18.164c-0.062,0.061-0.062,0.16,0,0.221l6.188,6.139
		c0.031,0.03,0.072,0.046,0.112,0.046c0.04,0,0.081-0.015,0.112-0.046l18.313-18.165c0.03-0.029,0.047-0.069,0.047-0.111
		c0-0.042-0.017-0.082-0.047-0.111L-473.323,404.105z"/>
	<path d="M-464.407,403.418l-2.036-2.02c-0.584-0.579-1.362-0.899-2.189-0.899c-0.826,0-1.604,0.319-2.187,0.899l-2.036,2.02
		c-0.03,0.029-0.047,0.069-0.047,0.111c0,0.042,0.017,0.081,0.047,0.111l6.188,6.138c0.03,0.029,0.07,0.046,0.112,0.046
		s0.082-0.017,0.111-0.046l2.036-2.02c0.584-0.58,0.907-1.35,0.907-2.171C-463.501,404.769-463.823,403.998-464.407,403.418z"/>
	<path d="M-492.273,422.889c-0.039-0.039-0.095-0.055-0.15-0.041c-0.054,0.013-0.097,0.053-0.113,0.106l-2.958,9.342
		c-0.018,0.057-0.002,0.118,0.041,0.159c0.03,0.029,0.07,0.044,0.11,0.044c0.017,0,0.035-0.004,0.053-0.009l9.146-3.204
		c0.051-0.018,0.09-0.06,0.101-0.113c0.012-0.052-0.004-0.108-0.043-0.146L-492.273,422.889z"/>
</g>
</svg>
