<?xml version="1.0" encoding="iso-8859-1"?>
<!-- Generator: Adobe Illustrator 17.0.2, SVG Export Plug-In . SVG Version: 6.00 Build 0)  -->
<!DOCTYPE svg PUBLIC "-//W3C//DTD SVG 1.1//EN" "http://www.w3.org/Graphics/SVG/1.1/DTD/svg11.dtd">
<svg version="1.1" id="geo-map" xmlns="http://www.w3.org/2000/svg" xmlns:xlink="http://www.w3.org/1999/xlink" x="0px" y="0px"
	 width="32px" height="32px" viewBox="-495.5 400.5 32 32" style="enable-background:new -495.5 400.5 32 32;" xml:space="preserve"
	>
<g>
	<path d="M-479.5,400.5c-8.823,0-16,7.178-16,16c0,8.822,7.178,16,16,16c8.822,0,16-7.178,16-16
		C-463.5,407.678-470.678,400.5-479.5,400.5z M-479.417,429.527c-7.163,0-12.971-5.806-12.971-12.97
		c0-7.163,5.808-12.97,12.971-12.97c7.163,0,12.97,5.807,12.97,12.97C-466.446,423.72-472.254,429.527-479.417,429.527z"/>
	<path d="M-474.259,419.89l-3.139-1.64c-0.18-0.094-0.495-0.172-0.699-0.172l-2.464-0.001c-0.203,0-0.501-0.105-0.659-0.233
		l-1.475-1.183c-0.159-0.128-0.289-0.399-0.288-0.603l0.005-1.029c0.001-0.204,0.169-0.37,0.372-0.37h0.999
		c0.204,0,0.37,0.167,0.37,0.37v1.275c0,0.204,0.167,0.371,0.371,0.371h0.103c0.204,0,0.371-0.167,0.371-0.371l-0.001-2.214
		c0-0.204,0.133-0.472,0.295-0.595l0.749-0.571c0.162-0.123,0.461-0.225,0.665-0.225h1.827c0.204,0,0.371-0.126,0.371-0.281
		c0-0.155-0.167-0.282-0.371-0.282h-0.596c-0.204,0-0.371-0.167-0.37-0.37l0.001-1.332c0-0.204-0.167-0.371-0.37-0.371l-0.528-0.001
		c-0.204-0.001-0.256-0.122-0.115-0.269l0.792-0.834c0.14-0.149,0.255-0.404,0.255-0.568c0-0.165-0.166-0.299-0.371-0.299h-0.549
		c-0.204,0-0.507-0.096-0.674-0.213l-0.694-0.488c-0.167-0.117-0.303-0.379-0.303-0.583v-1.54c-3.401,0.288-6.378,2.08-8.259,4.71
		l0.435-0.134c0.195-0.06,0.354,0.058,0.354,0.262v1.276c0,0.205,0.074,0.521,0.161,0.705l1.081,2.239
		c0.089,0.183,0.328,0.334,0.532,0.334h0.445c0.204,0,0.456,0.144,0.559,0.32l0.933,1.584c0.103,0.176,0.324,0.416,0.491,0.534
		l1.994,1.411c0.166,0.118,0.47,0.214,0.673,0.214h0.627c0.204,0,0.371,0.167,0.371,0.37v2.311c0,0.203,0.166,0.37,0.37,0.37h0.421
		c0.204,0,0.371,0.167,0.371,0.371v0.421c0,0.203-0.167,0.371-0.371,0.371h-0.421c-0.204,0-0.37,0.166-0.37,0.371v3.943
		c0,0.204,0.166,0.371,0.37,0.371h1.516c0.203,0,0.371-0.146,0.371-0.326c0-0.178-0.167-0.324-0.371-0.324h-0.353
		c-0.203,0-0.248-0.115-0.1-0.254l3.084-2.879c0.149-0.14,0.342-0.404,0.43-0.588l0.947-1.998c0.088-0.184,0.159-0.502,0.159-0.706
		h0.001v-0.112C-473.93,420.228-474.078,419.984-474.259,419.89z"/>
	<path d="M-477.36,407.345c0,0.204,0.167,0.37,0.371,0.37h0.537c0.204,0,0.37,0.167,0.37,0.37v1.205
		c0,0.204,0.167,0.371,0.371,0.371h0.16c0.204,0,0.505-0.099,0.669-0.22c0,0,2.263-1.755,2.311-1.913
		c-1.382-1.051-3.014-1.788-4.788-2.115V407.345z"/>
</g>
</svg>
