<?xml version="1.0" encoding="iso-8859-1"?>
<!-- Generator: Adobe Illustrator 17.0.2, SVG Export Plug-In . SVG Version: 6.00 Build 0)  -->
<!DOCTYPE svg PUBLIC "-//W3C//DTD SVG 1.1//EN" "http://www.w3.org/Graphics/SVG/1.1/DTD/svg11.dtd">
<svg version="1.1" id="line-chart-2nd" xmlns="http://www.w3.org/2000/svg" xmlns:xlink="http://www.w3.org/1999/xlink" x="0px"
	 y="0px" width="32px" height="32px" viewBox="-495.5 400.5 32 32" style="enable-background:new -495.5 400.5 32 32;"
	 xml:space="preserve">
<g>
	<polygon points="-493.326,423.892 -495.5,422.287 -494.341,420.752 -492.167,422.356 	"/>
	<polygon points="-489.516,418.846 -491.69,417.241 -489.039,413.73 -486.865,415.335 	"/>
	<polygon points="-484.188,411.825 -484.201,411.806 -484.214,411.824 -486.388,410.22 -484.083,407.167 -481.935,410.33 	"/>
	<polygon points="-479.298,419.028 -481.743,415.426 -479.49,413.931 -477.045,417.533 	"/>
	<polygon points="-474.677,425.833 -476.852,422.629 -474.659,421.174 -474.631,421.134 -474.615,421.145 -474.6,421.134 
		-474.572,421.175 -472.418,422.686 	"/>
	<polygon points="-469.819,419.066 -472.032,417.514 -469.433,413.893 -467.22,415.445 	"/>
	<polygon points="-464.622,411.825 -466.834,410.273 -465.713,408.71 -463.5,410.263 	"/>
</g>
</svg>
