<?xml version="1.0" encoding="iso-8859-1"?>
<!-- Generator: Adobe Illustrator 17.0.2, SVG Export Plug-In . SVG Version: 6.00 Build 0)  -->
<!DOCTYPE svg PUBLIC "-//W3C//DTD SVG 1.1//EN" "http://www.w3.org/Graphics/SVG/1.1/DTD/svg11.dtd">
<svg version="1.1" id="partial" xmlns="http://www.w3.org/2000/svg" xmlns:xlink="http://www.w3.org/1999/xlink" x="0px" y="0px"
	 width="32px" height="32px" viewBox="-495.5 400.5 32 32" style="enable-background:new -495.5 400.5 32 32;" xml:space="preserve"
	>
<path d="M-481.07,415.5l-6.081-13.042c-4.817,2.622-7.968,7.568-8.309,13.042c-0.025,0.398-0.046,0.797-0.04,1.2v0.067
	c0.004,0.243,0.033,0.489,0.049,0.733c0.052,0.817,0.147,1.638,0.33,2.463c0.878,3.962,3.165,7.239,6.206,9.454l7.592-11.917
	l0.685-1.075L-481.07,415.5z"/>
<path d="M-477.93,417.5l-1.021,0l-0.684,1.074l-7.592,11.917c3.293,1.82,7.229,2.508,11.191,1.629
	c0.824-0.183,1.609-0.444,2.372-0.742c0.231-0.09,0.469-0.169,0.694-0.269l0.036-0.017c0.373-0.167,0.731-0.358,1.086-0.552
	c4.817-2.622,7.968-7.568,8.309-13.042L-477.93,417.5z"/>
<path d="M-470.086,403.583c-0.268-0.195-0.532-0.395-0.812-0.573l-0.012-0.008c-0.28-0.178-0.573-0.333-0.863-0.493
	c-3.293-1.82-7.229-2.508-11.191-1.629c-0.824,0.183-1.609,0.444-2.372,0.742l5.971,12.805l0.501,1.074l1.186,0l14.128,0
	c-0.052-0.817-0.147-1.638-0.33-2.463C-464.758,409.075-467.044,405.798-470.086,403.583z"/>
</svg>
