<?xml version="1.0" encoding="utf-8"?>
<!-- Generator: Adobe Illustrator 17.0.2, SVG Export Plug-In . SVG Version: 6.00 Build 0)  -->
<!DOCTYPE svg PUBLIC "-//W3C//DTD SVG 1.1//EN" "http://www.w3.org/Graphics/SVG/1.1/DTD/svg11.dtd">
<svg version="1.1" id="pixel-user" xmlns="http://www.w3.org/2000/svg" xmlns:xlink="http://www.w3.org/1999/xlink" x="0px" y="0px"
	 width="32px" height="32px" viewBox="-495.5 400.5 32 32" enable-background="new -495.5 400.5 32 32" xml:space="preserve">
<path d="M-478.986,416.5c-0.456-0.58-0.436-0.934-0.152-2.879c0.213-0.945,0.42-1.398,0.625-1.736
	c0.289-0.479,0.608-1.078,1.026-3.681c0.359-2.215,0.018-4.098-0.961-5.251c-0.747-0.891-1.738-2.195-3.164-2.195
	c-1.441,0-2.675,1.285-3.423,2.179c-0.974,1.155-1.314,3.002-0.961,5.216c0.414,2.604,0.732,3.141,1.034,3.616
	c0.202,0.333,0.404,0.688,0.616,1.607c0.302,2.041,0.312,2.119-0.202,2.743c-0.969,1.199-3.171,2.647-5.494,3.233
	c-2.486,0.62-5.457,13.148-5.457,13.148h16v-16H-478.986z"/>
<path d="M-477.5,432.5h14v-14h-14V432.5z M-475.5,420.5h10v10h-10V420.5z"/>
<rect x="-473.5" y="422.5" width="6" height="6"/>
</svg>
