<?xml version="1.0" encoding="iso-8859-1"?>
<!-- Generator: Adobe Illustrator 17.0.2, SVG Export Plug-In . SVG Version: 6.00 Build 0)  -->
<!DOCTYPE svg PUBLIC "-//W3C//DTD SVG 1.1//EN" "http://www.w3.org/Graphics/SVG/1.1/DTD/svg11.dtd">
<svg version="1.1" id="Layer_1" xmlns="http://www.w3.org/2000/svg" xmlns:xlink="http://www.w3.org/1999/xlink" x="0px" y="0px"
	 width="32px" height="32px" viewBox="-495.5 400.5 32 32" style="enable-background:new -495.5 400.5 32 32;" xml:space="preserve"
	>
<g>
	<path d="M-479.712,400.501c-8.837,0.118-15.905,7.378-15.786,16.214c0.118,8.831,7.378,15.901,16.214,15.783
		c8.833-0.118,15.903-7.378,15.783-16.214C-463.618,407.451-470.877,400.383-479.712,400.501L-479.712,400.501z M-479.759,426.239
		h-0.089c-1.36-0.04-2.32-1.043-2.282-2.384c0.038-1.317,1.021-2.275,2.337-2.275l0.08,0.002c1.398,0.042,2.348,1.035,2.306,2.414
		C-477.444,425.316-478.413,426.239-479.759,426.239L-479.759,426.239z M-474.036,414.879c-0.322,0.454-1.024,1.019-1.911,1.71
		l-0.977,0.675c-0.536,0.417-0.859,0.809-0.979,1.193c-0.097,0.306-0.143,0.384-0.151,1.002l-0.002,0.158h-3.727l0.01-0.317
		c0.045-1.297,0.078-2.059,0.616-2.69c0.843-0.99,2.704-2.188,2.783-2.238c0.266-0.202,0.49-0.43,0.659-0.673
		c0.391-0.539,0.564-0.965,0.564-1.381c0-0.579-0.172-1.115-0.511-1.591c-0.327-0.461-0.948-0.694-1.845-0.694
		c-0.89,0-1.499,0.284-1.864,0.863c-0.377,0.597-0.565,1.221-0.565,1.861v0.16h-3.844l0.007-0.167
		c0.099-2.355,0.939-4.049,2.497-5.038c0.977-0.631,2.195-0.95,3.614-0.95c1.859,0,3.431,0.452,4.666,1.343
		c1.252,0.903,1.887,2.256,1.887,4.019C-473.11,413.11-473.422,414.037-474.036,414.879L-474.036,414.879z"/>
</g>
</svg>
