<?xml version="1.0" encoding="iso-8859-1"?>
<!-- Generator: Adobe Illustrator 17.0.2, SVG Export Plug-In . SVG Version: 6.00 Build 0)  -->
<!DOCTYPE svg PUBLIC "-//W3C//DTD SVG 1.1//EN" "http://www.w3.org/Graphics/SVG/1.1/DTD/svg11.dtd">
<svg version="1.1" id="refresh" xmlns="http://www.w3.org/2000/svg" xmlns:xlink="http://www.w3.org/1999/xlink" x="0px" y="0px"
	 width="32px" height="32px" viewBox="-495.5 400.5 32 32" style="enable-background:new -495.5 400.5 32 32;" xml:space="preserve"
	>
<g>
	<path d="M-470.459,407.655l-3.706-7.155l-1.33,3.123c-6.818-2.093-14.199,1.206-16.97,7.709c-1.674,3.93-1.232,8.221,0.728,11.689
		l4.749-1.925c-1.486-2.268-1.828-5.166-0.692-7.833c1.671-3.926,5.972-6.001,10.202-4.985l-1.125,2.641L-470.459,407.655z"/>
	<path d="M-467.799,409.809l-4.875,1.963c2.06,2.359,2.715,5.735,1.416,8.786c-1.844,4.328-7.053,6.397-11.438,4.631
		c0,0-0.006-0.002-0.017-0.006c-0.025-0.01-0.044-0.025-0.069-0.035l1.2-2.816l-7.934,2.981l3.604,7.188l1.186-2.782
		c-0.001-0.002-0.002-0.004-0.003-0.007c0.011,0.005,0.021,0.012,0.032,0.016c6.97,2.768,15.202-0.447,18.122-7.298
		C-464.74,418.12-465.323,413.428-467.799,409.809z"/>
</g>
</svg>
