<?xml version="1.0" encoding="utf-8"?>
<!-- Generator: Adobe Illustrator 18.1.1, SVG Export Plug-In . SVG Version: 6.00 Build 0)  -->
<svg version="1.1" id="supply-node" xmlns="http://www.w3.org/2000/svg" xmlns:xlink="http://www.w3.org/1999/xlink" x="0px"
	 y="0px" viewBox="-495.5 400.5 32 32" enable-background="new -495.5 400.5 32 32" xml:space="preserve">
<path d="M-469.704,417.567c0.442,1.24,1.613,2.133,3.004,2.133c1.767,0,3.2-1.432,3.2-3.2s-1.433-3.2-3.2-3.2
	c-1.391,0-2.563,0.894-3.004,2.133h-4.57c-0.138-0.681-0.409-1.311-0.78-1.871l3.802-3.802c-0.614-0.38-1.129-0.894-1.511-1.505
	l-3.799,3.799c-0.56-0.371-1.19-0.642-1.871-0.78v-4.57c1.24-0.441,2.133-1.612,2.133-3.004c0-1.768-1.432-3.2-3.2-3.2
	s-3.2,1.432-3.2,3.2c0,1.392,0.894,2.564,2.133,3.004v4.57c-0.681,0.138-1.311,0.409-1.871,0.78l-4.849-4.849
	c0.199-0.418,0.32-0.878,0.32-1.372c0-1.768-1.432-3.2-3.2-3.2c-1.768,0-3.2,1.432-3.2,3.2c0,1.768,1.432,3.2,3.2,3.2
	c0.494,0,0.954-0.121,1.372-0.32l4.849,4.849c-0.371,0.559-0.642,1.191-0.78,1.871h-4.57c-0.441-1.239-1.613-2.133-3.004-2.133
	c-1.768,0-3.2,1.432-3.2,3.2s1.432,3.2,3.2,3.2c1.392,0,2.564-0.894,3.004-2.133h4.57c0.138,0.681,0.409,1.312,0.78,1.871
	l-4.849,4.85c-0.418-0.2-0.879-0.321-1.372-0.321c-1.768,0-3.2,1.433-3.2,3.2c0,1.767,1.432,3.2,3.2,3.2c1.768,0,3.2-1.433,3.2-3.2
	c0-0.492-0.121-0.954-0.32-1.371l4.849-4.85c0.56,0.371,1.19,0.642,1.871,0.779v4.571c-1.24,0.442-2.133,1.613-2.133,3.004
	c0,1.767,1.432,3.2,3.2,3.2s3.2-1.433,3.2-3.2c0-1.392-0.894-2.563-2.133-3.004v-4.571c0.68-0.137,1.311-0.408,1.871-0.779
	l4.849,4.85c-0.199,0.417-0.32,0.879-0.32,1.371c0,1.767,1.433,3.2,3.2,3.2c1.767,0,3.2-1.433,3.2-3.2c0-1.767-1.433-3.2-3.2-3.2
	c-0.493,0-0.954,0.121-1.372,0.321l-4.849-4.85c0.371-0.559,0.642-1.19,0.78-1.871H-469.704z"/>
<path d="M-468.798,402.171c-1.995,0-3.618,1.623-3.618,3.618c0,0.611,0.167,1.178,0.435,1.683c0.342,0.644,0.867,1.167,1.511,1.505
	c0.502,0.265,1.065,0.429,1.671,0.429c1.995,0,3.618-1.623,3.618-3.618C-465.18,403.794-466.803,402.171-468.798,402.171z
	 M-471.349,405.789c0-1.406,1.145-2.551,2.551-2.551c1.406,0,2.551,1.145,2.551,2.551c0,1.406-1.145,2.551-2.551,2.551
	C-470.204,408.34-471.349,407.195-471.349,405.789z"/>
</svg>
