<?xml version="1.0" encoding="iso-8859-1"?>
<!-- Generator: Adobe Illustrator 17.0.2, SVG Export Plug-In . SVG Version: 6.00 Build 0)  -->
<!DOCTYPE svg PUBLIC "-//W3C//DTD SVG 1.1//EN" "http://www.w3.org/Graphics/SVG/1.1/DTD/svg11.dtd">
<svg version="1.1" id="tools" xmlns="http://www.w3.org/2000/svg" xmlns:xlink="http://www.w3.org/1999/xlink" x="0px" y="0px"
	 width="32px" height="32px" viewBox="-495.5 400.5 32 32" style="enable-background:new -495.5 400.5 32 32;" xml:space="preserve"
	>
<g>
	<path d="M-463.551,413.185c-0.252-0.493-1.073-0.993-1.633-0.976c-1.61,0.047-2.038-0.779-2.173-2.156
		c-0.057-0.583-0.348-1.23-0.731-1.676c-0.85-0.984-1.797-1.895-2.757-2.779c-2.453-2.263-7.57-2.849-10.765-0.996
		c0.752,0.177,1.227,0.232,1.656,0.399c1.41,0.553,2.917,0.969,4.178,1.768c1.844,1.168,1.855,1.962,0.464,3.642l2.85,2.811
		c1.324-0.672,1.964-0.839,2.748-0.55c1.006,0.371,2.046,1.161,1.439,2.748c-0.128,0.334,0.681,1.183,1.225,1.549
		c0.244,0.165,0.973-0.172,1.345-0.458c0.607-0.466,1.185-1.019,1.614-1.646C-463.757,414.379-463.357,413.566-463.551,413.185z"/>
	<path d="M-480.573,415.879c-1.499-1.583-2.87-2.901-4.065-4.362c-0.43-0.525-0.736-1.471-0.579-2.096
		c0.552-2.174-0.26-3.724-1.944-4.903c-1.665-1.167-3.449-1.274-5.498-0.191c1.817,1.406,4.581,2.387,2.55,5.234
		c-1.964,2.754-3.566-0.164-5.328-0.58c-0.472,2.931,1.749,5.654,4.597,5.207c1.894-0.299,3.026,0.399,4.201,1.549l3.161,2.975
		c-2.309,2.183-4.549,4.297-6.791,6.414c-1.539,1.452-1.444,1.974,0.715,3.934c1.302,1.182,1.949,1.066,3.176-0.45
		c1.855-2.295,3.749-4.557,5.707-6.931c1.135,1.203,2.174,2.325,3.233,3.426c1.071,1.115,2.168,2.204,3.241,3.317
		c1.424,1.477,2.803,1.686,3.982,0.585c1.382-1.288,1.32-2.529-0.323-4.075c-2.278-2.141-4.61-4.225-7.136-6.531
		c1.356-1.268,2.886-2.829,3.992-3.879l-2.782-2.744C-477.852,413.167-479.122,414.431-480.573,415.879z M-471.833,425.735
		c0.78,0,1.413,0.634,1.413,1.412c0,0.781-0.633,1.414-1.413,1.414c-0.78,0-1.413-0.633-1.413-1.414
		C-473.246,426.368-472.613,425.735-471.833,425.735z"/>
</g>
</svg>
