<?xml version="1.0" encoding="iso-8859-1"?>
<!-- Generator: Adobe Illustrator 17.0.2, SVG Export Plug-In . SVG Version: 6.00 Build 0)  -->
<!DOCTYPE svg PUBLIC "-//W3C//DTD SVG 1.1//EN" "http://www.w3.org/Graphics/SVG/1.1/DTD/svg11.dtd">
<svg version="1.1" id="wireless" xmlns="http://www.w3.org/2000/svg" xmlns:xlink="http://www.w3.org/1999/xlink" x="0px" y="0px"
	 width="32px" height="32px" viewBox="-495.5 400.5 32 32" style="enable-background:new -495.5 400.5 32 32;" xml:space="preserve"
	>
<path d="M-486.288,420.734c-0.637,0.683-0.637,1.791,0,2.474c0.637,0.683,1.672,0.683,2.309,0c2.467-2.642,6.484-2.644,8.954,0
	c0.32,0.341,0.737,0.513,1.155,0.513c0.418,0,0.837-0.172,1.155-0.513c0.637-0.683,0.637-1.791,0-2.474
	C-476.458,416.724-482.546,416.726-486.288,420.734z"/>
<path d="M-490.547,416.171c-0.637,0.683-0.637,1.791,0,2.474c0.32,0.341,0.737,0.513,1.155,0.513s0.837-0.17,1.155-0.513
	c4.816-5.158,12.655-5.158,17.472,0c0.637,0.683,1.672,0.683,2.309,0c0.637-0.683,0.637-1.791,0-2.474
	C-474.546,409.647-484.456,409.647-490.547,416.171z"/>
<path d="M-463.978,411.375c-8.56-9.168-22.486-9.166-31.044,0c-0.637,0.683-0.637,1.791,0,2.474c0.637,0.683,1.672,0.683,2.309,0
	c7.286-7.802,19.138-7.804,26.425,0c0.32,0.341,0.737,0.513,1.155,0.513c0.418,0,0.837-0.17,1.155-0.513
	C-463.341,413.168-463.341,412.058-463.978,411.375z"/>
<path d="M-479.502,424.999c0.903,0,1.634,0.783,1.634,1.751c0,0.966-0.731,1.751-1.634,1.751c-0.901,0-1.634-0.783-1.634-1.751
	C-481.134,425.782-480.403,424.999-479.502,424.999z"/>
</svg>
