<?xml version="1.0" encoding="utf-8"?>
<!-- Generator: Adobe Illustrator 18.1.1, SVG Export Plug-In . SVG Version: 6.00 Build 0)  -->
<svg version="1.1" id="Layer_1" xmlns="http://www.w3.org/2000/svg" xmlns:xlink="http://www.w3.org/1999/xlink" x="0px" y="0px"
	 viewBox="0 0 99 60" enable-background="new 0 0 99 60" xml:space="preserve">
<rect x="4.5" y="12.2" fill="#669A41" width="16.8" height="8.3"/>
<rect x="41.8" y="7" fill="#6859A6" width="11.3" height="9.3"/>
<rect x="21.3" y="40.3" fill="#EE2F73" width="6.9" height="5.3"/>
<polygon fill="#EF3B68" points="28.2,20.5 28.2,16.2 38.4,16.2 38.4,3 21.3,3 21.3,12.2 21.3,20.5 "/>
<polygon fill="#72C9F1" points="28.2,40.3 28.2,45.7 28.2,51.7 53.1,51.7 53.1,40.3 "/>
<polygon fill="#72C9F1" points="28.2,20.5 53.1,20.5 53.1,16.2 41.8,16.2 38.4,16.2 28.2,16.2 "/>
<rect x="67.9" y="10" fill="#CC3533" width="25.9" height="10.5"/>
<rect x="67.9" y="40.3" fill="#CC3533" width="25.9" height="8.9"/>
<polygon fill="#F89939" points="53.1,20.5 67.9,20.5 67.9,10 67.9,0 53.1,0 53.1,7 53.1,16.2 "/>
<polygon fill="#F89939" points="53.1,40.3 53.1,51.7 53.1,60 67.9,60 67.9,49.3 67.9,40.3 "/>
<path fill="#005388" d="M67.9,20.5H53.1H28.2h-6.9H4.5H0v19.9h21.3h6.9h24.9h14.7h25.9h4.6V20.5h-4.6H67.9z M20.7,36.3H19v-9.9h0
	l-4.1,9.9h-1.1l-4.1-9.9h0v9.9H8.1v-12h2.4l3.8,9.1h0.1l3.8-9.1h2.4V36.3z M30.4,32.9H24c0,1.4,1.3,2.3,2.7,2.3
	c0.9,0,1.6-0.5,2.2-1.2l1.2,0.9c-0.9,1.1-2,1.7-3.6,1.7c-2.6,0-4.1-1.8-4.1-4.2c0-2.4,1.8-4.2,4.2-4.2c2.8,0,3.9,2.2,3.9,4.2V32.9z
	 M39.9,36.3h-1.5h0c0,0-1.7,0-2.8,0c-2.5,0-4.1-1.7-4.1-4c0-2.4,1.6-4.2,4.1-4.2c1.2,0,2.3,0.5,2.8,1.4h0v-5.1h1.5V36.3z M43.5,36.3
	h-1.5v-8.1h1.5V36.3z M43.5,27h-1.5v-1.5h1.5V27z M52.1,34.9c0,0.6,0,1.5,0,1.5h-1.3h-0.1c0,0-1.6,0-2.8,0c-1.5,0-2.8-0.6-2.8-2.2
	c0-2.1,2-2.8,4.4-2.8h1.1V31c0-0.8-0.6-1.7-1.9-1.7c-1.2,0-1.7,0.5-2.3,0.9l-0.9-1c0.9-0.8,2.1-1.2,3.2-1.2c2.4,0,3.4,1.3,3.4,2.7
	V34.9z M66.7,36.3h-1.6v-9.9h0L61,36.3h-1.1l-4.1-9.9h0v9.9h-1.6v-12h2.4l3.8,9.1h0.1l3.8-9.1h2.4V36.3z M74.9,34.9
	c0,0.6,0,1.5,0,1.5h-1.3h-0.1c0,0-1.6,0-2.8,0c-1.5,0-2.8-0.6-2.8-2.2c0-2.1,2-2.8,4.4-2.8h1.1V31c0-0.8-0.6-1.7-1.9-1.7
	c-1.2,0-1.7,0.5-2.3,0.9l-0.9-1c0.9-0.8,2.1-1.2,3.2-1.2c2.4,0,3.4,1.3,3.4,2.7V34.9z M81.6,36.3c-0.4,0.2-1.1,0.3-1.4,0.3
	c-2.4,0-2.4-1.4-2.4-2.7v-4.2h-1.8v-1.3h1.8V26h1.5v2.3h2.2v1.3h-2.2v3.7c0,0.9,0,1.9,1.2,1.9c0.4,0,0.8,0,1.1-0.2V36.3z M90.3,36.3
	h-1.5v-4.8c0-1.5-0.9-2.1-1.8-2.1c-1.3,0-2.2,0.8-2.2,2.7v4.2h-1.5v-12h1.5l0,3.8c0,0,1.4,0,2.7,0c1.6,0,2.9,0.9,2.9,3.1V36.3z"/>
<path fill="#005388" d="M26.5,29.3c-1.5,0-2.5,1.3-2.5,2.4h4.8C28.8,30.3,28,29.3,26.5,29.3z"/>
<path fill="#005388" d="M46.6,34c0,0.9,0.7,1.3,1.7,1.3c1.7,0,2.3-1.3,2.3-2.4v-0.5h-0.8C48.4,32.4,46.6,32.7,46.6,34z"/>
<path fill="#005388" d="M35.7,29.5c-1.6,0-2.7,1.2-2.7,2.8c0,1.6,1,2.8,2.7,2.8c1.6,0,2.7-1.2,2.7-2.8
	C38.4,30.7,37.4,29.5,35.7,29.5z"/>
<path fill="#005388" d="M69.4,34c0,0.9,0.7,1.3,1.7,1.3c1.7,0,2.3-1.3,2.3-2.4v-0.5h-0.8C71.2,32.4,69.4,32.7,69.4,34z"/>
<polygon fill="#FFFFFF" points="14.4,33.4 14.4,33.4 10.5,24.3 8.1,24.3 8.1,36.3 9.7,36.3 9.7,26.4 9.8,26.4 13.8,36.3 14.9,36.3 
	19,26.4 19,26.4 19,36.3 20.7,36.3 20.7,24.3 18.2,24.3 "/>
<path fill="#FFFFFF" d="M26.5,28.1c-2.4,0-4.2,1.8-4.2,4.2c0,2.4,1.6,4.2,4.1,4.2c1.5,0,2.7-0.5,3.6-1.7L28.9,34
	c-0.6,0.7-1.3,1.2-2.2,1.2c-1.4,0-2.7-0.9-2.7-2.3h6.5v-0.5C30.4,30.2,29.4,28.1,26.5,28.1z M24,31.6c0-1.1,1-2.4,2.5-2.4
	c1.5,0,2.3,1,2.3,2.4H24z"/>
<path fill="#FFFFFF" d="M38.4,29.4L38.4,29.4c-0.6-0.8-1.7-1.4-2.8-1.4c-2.5,0-4.1,1.8-4.1,4.2c0,2.4,1.6,4,4.1,4c1.1,0,2.8,0,2.8,0
	h0h1.5v-12h-1.5V29.4z M35.7,35.1c-1.6,0-2.7-1.2-2.7-2.8c0-1.6,1-2.8,2.7-2.8c1.6,0,2.7,1.2,2.7,2.8C38.4,33.9,37.4,35.1,35.7,35.1
	z"/>
<rect x="41.9" y="28.3" fill="#FFFFFF" width="1.5" height="8.1"/>
<path fill="#FFFFFF" d="M48.7,28.1c-1.1,0-2.3,0.4-3.2,1.2l0.9,1c0.6-0.4,1.1-0.9,2.3-0.9c1.3,0,1.9,0.9,1.9,1.7v0.3h-1.1
	c-2.4,0-4.4,0.7-4.4,2.8c0,1.6,1.3,2.2,2.8,2.2c1.2,0,2.8,0,2.8,0h0.1h1.3c0,0,0-0.9,0-1.5v-4.1C52.1,29.4,51.1,28.1,48.7,28.1z
	 M50.6,33c0,1.1-0.6,2.4-2.3,2.4c-1.1,0-1.7-0.4-1.7-1.3c0-1.3,1.8-1.5,3.2-1.5h0.8V33z"/>
<path fill="#FFFFFF" d="M71.5,28.1c-1.1,0-2.3,0.4-3.2,1.2l0.9,1c0.6-0.4,1.1-0.9,2.3-0.9c1.3,0,1.9,0.9,1.9,1.7v0.3h-1.1
	c-2.4,0-4.4,0.7-4.4,2.8c0,1.6,1.3,2.2,2.8,2.2c1.2,0,2.8,0,2.8,0h0.1h1.3c0,0,0-0.9,0-1.5v-4.1C74.9,29.4,73.9,28.1,71.5,28.1z
	 M73.5,33c0,1.1-0.6,2.4-2.3,2.4c-1.1,0-1.7-0.4-1.7-1.3c0-1.3,1.8-1.5,3.2-1.5h0.8V33z"/>
<polygon fill="#FFFFFF" points="60.5,33.4 60.4,33.4 56.6,24.3 54.1,24.3 54.1,36.3 55.8,36.3 55.8,26.4 55.8,26.4 59.9,36.3 
	61,36.3 65,26.4 65.1,26.4 65.1,36.3 66.7,36.3 66.7,24.3 64.3,24.3 "/>
<path fill="#FFFFFF" d="M79.4,33.2v-3.7h2.2v-1.3h-2.2V26h-1.5v2.3h-1.8v1.3h1.8v4.2c0,1.3,0,2.7,2.4,2.7c0.3,0,1-0.1,1.4-0.3v-1.4
	c-0.3,0.2-0.7,0.2-1.1,0.2C79.4,35.1,79.4,34.1,79.4,33.2z"/>
<path fill="#FFFFFF" d="M87.3,28.1c-1.2,0-2.7,0-2.7,0l0-3.8h-1.5v12h1.5v-4.2c0-1.9,1-2.7,2.2-2.7c1,0,1.8,0.6,1.8,2.1v4.8h1.5
	v-5.2C90.3,29,88.9,28.1,87.3,28.1z"/>
<rect x="41.9" y="25.4" fill="#FFFFFF" width="1.5" height="1.5"/>
</svg>
