<?xml version="1.0" encoding="utf-8"?>
<!-- Generator: Adobe Illustrator 18.1.1, SVG Export Plug-In . SVG Version: 6.00 Build 0)  -->
<svg version="1.1" id="Layer_1" xmlns="http://www.w3.org/2000/svg" xmlns:xlink="http://www.w3.org/1999/xlink" x="0px" y="0px"
	 viewBox="139 237.5 222 25" enable-background="new 139 237.5 222 25" xml:space="preserve">
<polygon fill="#333333" points="146.8,253.6 146.7,253.6 142,242.3 139,242.3 139,257.2 141.1,257.2 141.1,245 141.1,245 
	146.1,257.2 147.4,257.2 152.4,245 152.5,245 152.5,257.2 154.5,257.2 154.5,242.3 151.5,242.3 "/>
<path fill="#333333" d="M161.7,247c-3,0-5.1,2.2-5.1,5.2c0,3,2,5.2,5.1,5.2c1.9,0,3.4-0.7,4.4-2.1l-1.4-1.1
	c-0.7,0.9-1.6,1.5-2.7,1.5c-1.8,0-3.4-1.1-3.4-2.9h8v-0.7C166.6,249.7,165.2,247,161.7,247z M158.6,251.4c0-1.3,1.2-2.9,3.1-2.9
	s2.8,1.2,2.9,2.9H158.6z"/>
<path fill="#333333" d="M176.4,242.3v6.3l0,0c-0.7-1-2.1-1.7-3.4-1.7c-3.1,0-5,2.2-5,5.2c0,3,2,4.9,5,4.9c1.3,0,3.4,0,3.4,0l0,0h1.9
	v-14.9L176.4,242.3L176.4,242.3z M173.1,255.7c-2.1,0-3.3-1.5-3.3-3.4c0-2.1,1.2-3.4,3.3-3.4c2.1,0,3.3,1.5,3.3,3.4
	C176.4,254.3,175.2,255.7,173.1,255.7z"/>
<rect x="180.8" y="247.3" fill="#333333" width="1.9" height="10"/>
<path fill="#333333" d="M189.2,247c-1.4,0-2.9,0.5-3.9,1.5l1.1,1.2c0.7-0.6,1.4-1.1,2.8-1.1c1.6,0,2.3,1,2.3,2.1v0.5h-1.4
	c-3,0-5.5,0.8-5.5,3.4c0,2,1.6,2.7,3.4,2.7c1.5,0,3.4,0,3.4,0h0.1h1.6c0,0,0-1.1,0-1.8v-5.1C193.3,248.6,192,247,189.2,247z
	 M191.5,253.1c0,1.3-0.7,2.9-2.8,2.9c-1.3,0-2.1-0.5-2.1-1.6c0-1.6,2.1-2,4-2h1L191.5,253.1L191.5,253.1z"/>
<path fill="#333333" d="M217.3,247c-1.4,0-2.9,0.5-3.9,1.5l1.1,1.2c0.7-0.6,1.4-1.1,2.8-1.1c1.6,0,2.3,1,2.3,2.1v0.5h-1.4
	c-3,0-5.5,0.8-5.5,3.4c0,2,1.6,2.7,3.4,2.7c1.5,0,3.4,0,3.4,0h0.1h1.6c0,0,0-1.1,0-1.8v-5.1C221.5,248.6,220.3,247,217.3,247z
	 M219.7,253.1c0,1.3-0.7,2.9-2.8,2.9c-1.3,0-2.1-0.5-2.1-1.6c0-1.6,2.1-2,4-2h1L219.7,253.1L219.7,253.1z"/>
<polygon fill="#333333" points="203.7,253.6 203.6,253.6 198.8,242.3 195.9,242.3 195.9,257.2 197.9,257.2 197.9,245 197.9,245 
	202.9,257.2 204.3,257.2 209.3,245 209.4,245 209.4,257.2 211.3,257.2 211.3,242.3 208.4,242.3 "/>
<path fill="#333333" d="M227,253.4V249h2.7v-1.7H227v-2.8h-1.9v2.8H223v1.7h2.1v5.1c0,1.6,0,3.4,3,3.4c0.4,0,1.3-0.1,1.7-0.4v-1.7
	c-0.4,0.2-0.9,0.3-1.3,0.3C227,255.7,227,254.6,227,253.4z"/>
<path fill="#333333" d="M236.9,247c-1.5,0-3.3,0-3.3,0v-4.7h-1.9v14.9h1.9v-5.1c0-2.3,1.2-3.4,2.8-3.4c1.2,0,2.2,0.7,2.2,2.5v5.9
	h1.9v-6.4C240.4,248.1,238.7,247,236.9,247z"/>
<rect x="180.8" y="243.7" fill="#333333" width="1.9" height="1.9"/>
<polygon fill="#333333" points="251.8,262.3 251,262.3 251,237.5 251.8,237.5 "/>
<path fill="#333333" d="M271.9,242.8v1.2h-5v13.2h-1.4v-13.3h-5v-1.1H271.9z"/>
<path fill="#333333" d="M271.7,253.7c0.1,0.5,0.4,0.9,0.7,1.3s0.7,0.7,1,0.9c0.5,0.3,0.9,0.4,1.6,0.4c0.9,0,1.7-0.3,2.1-0.7
	c0.6-0.5,0.9-1.1,1.1-2h1.3c-0.3,1.2-0.7,2.1-1.5,2.7c-0.7,0.7-1.8,0.9-3.1,0.9c-0.8,0-1.5-0.2-2.1-0.5c-0.6-0.3-1.1-0.7-1.5-1.2
	c-0.4-0.5-0.7-1.1-0.8-1.8c-0.2-0.7-0.3-1.4-0.3-2.1c0-0.7,0.1-1.4,0.3-2.1c0.2-0.7,0.5-1.2,0.8-1.8s0.8-0.9,1.5-1.2
	c0.6-0.3,1.3-0.5,2.1-0.5s1.6,0.2,2.1,0.5c0.6,0.4,1.1,0.7,1.5,1.3c0.4,0.6,0.7,1.2,0.8,1.9c0.2,0.7,0.2,1.4,0.2,2.1h-8
	C271.6,252.8,271.7,253.3,271.7,253.7z M278.1,249.9c-0.2-0.5-0.4-0.8-0.7-1.2c-0.3-0.4-0.7-0.7-1-0.8c-0.4-0.2-0.8-0.3-1.4-0.3
	s-1,0.1-1.4,0.3c-0.4,0.2-0.7,0.5-1,0.8c-0.3,0.4-0.5,0.7-0.7,1.2c-0.2,0.5-0.3,0.9-0.4,1.4h6.7
	C278.3,250.7,278.2,250.4,278.1,249.9z"/>
<path fill="#333333" d="M287.7,248.2c-0.5-0.5-1.1-0.7-2-0.7c-0.7,0-1.1,0.1-1.6,0.4s-0.8,0.6-1.1,1c-0.3,0.4-0.6,0.9-0.7,1.4
	c-0.2,0.6-0.2,1.1-0.2,1.6c0,0.6,0.1,1.1,0.2,1.6c0.2,0.6,0.4,1,0.7,1.4s0.7,0.7,1.1,1c0.5,0.3,1,0.4,1.6,0.4c0.4,0,0.7-0.1,1.1-0.2
	c0.4-0.1,0.7-0.4,0.9-0.7s0.5-0.6,0.7-0.9c0.2-0.4,0.3-0.7,0.3-1.2h1.3c-0.2,1.3-0.7,2.2-1.4,3c-0.7,0.7-1.7,1-2.9,1
	c-0.8,0-1.5-0.2-2.1-0.5c-0.7-0.3-1.1-0.7-1.6-1.2c-0.4-0.5-0.7-1.1-0.9-1.8s-0.3-1.4-0.3-2.1c0-0.7,0.1-1.5,0.3-2.1
	s0.6-1.2,0.9-1.8c0.4-0.6,0.9-0.9,1.6-1.2c0.7-0.3,1.3-0.5,2.1-0.5c1.1,0,2.1,0.3,2.8,0.9c0.7,0.6,1.2,1.5,1.4,2.7h-1.3
	C288.4,249.2,288.2,248.7,287.7,248.2z"/>
<path fill="#333333" d="M293,242.8v5.8l0,0c0.3-0.7,0.7-1.1,1.3-1.5s1.3-0.6,2.1-0.6s1.3,0.1,1.9,0.3c0.5,0.2,0.9,0.5,1.2,0.8
	c0.3,0.4,0.5,0.7,0.7,1.3c0.1,0.5,0.2,1,0.2,1.7v6.7H299v-6.5c0-0.5,0-0.8-0.1-1.2c-0.1-0.4-0.2-0.7-0.5-1c-0.2-0.3-0.5-0.5-0.8-0.7
	c-0.4-0.2-0.7-0.3-1.3-0.3c-0.6,0-0.9,0.1-1.4,0.3c-0.4,0.2-0.7,0.5-1,0.7c-0.3,0.3-0.5,0.7-0.7,1.1c-0.2,0.5-0.3,0.9-0.3,1.4v6.1
	h-1.3v-14.4H293z"/>
<path fill="#333333" d="M303.9,246.8v1.8l0,0c0.3-0.7,0.7-1.1,1.3-1.5c0.7-0.4,1.3-0.6,2.1-0.6c0.7,0,1.3,0.1,1.9,0.3
	c0.5,0.2,0.9,0.5,1.2,0.8s0.5,0.7,0.7,1.3c0.1,0.5,0.2,1,0.2,1.7v6.7h-1.3v-6.5c0-0.5,0-0.8-0.1-1.2c-0.1-0.4-0.2-0.7-0.5-1
	c-0.2-0.3-0.5-0.5-0.8-0.7c-0.4-0.2-0.7-0.3-1.3-0.3s-0.9,0.1-1.4,0.3c-0.4,0.2-0.7,0.5-1,0.7c-0.3,0.3-0.5,0.7-0.7,1.1
	s-0.3,0.9-0.3,1.4v6.1h-1.3v-10.4H303.9z"/>
<path fill="#333333" d="M319.9,246.9c0.7,0.3,1.1,0.7,1.6,1.2c0.5,0.6,0.7,1.1,0.9,1.8s0.3,1.4,0.3,2.1s-0.1,1.5-0.3,2.1
	s-0.6,1.2-0.9,1.8c-0.4,0.5-0.9,0.9-1.6,1.2c-0.7,0.3-1.3,0.5-2.1,0.5s-1.5-0.2-2.1-0.5c-0.7-0.3-1.1-0.7-1.6-1.2
	c-0.4-0.5-0.7-1.1-0.9-1.8c-0.2-0.7-0.3-1.4-0.3-2.1s0.1-1.5,0.3-2.1c0.2-0.7,0.6-1.2,0.9-1.8c0.4-0.5,0.9-0.9,1.6-1.2
	c0.7-0.3,1.3-0.5,2.1-0.5S319.4,246.6,319.9,246.9z M316.3,247.9c-0.5,0.3-0.8,0.6-1.1,1c-0.3,0.4-0.6,0.9-0.7,1.4
	c-0.1,0.5-0.2,1.1-0.2,1.6c0,0.6,0.1,1.1,0.2,1.6c0.1,0.5,0.4,1,0.7,1.4s0.7,0.7,1.1,1c0.5,0.3,1,0.4,1.6,0.4c0.6,0,1.1-0.1,1.6-0.4
	c0.5-0.3,0.8-0.6,1.1-1c0.3-0.4,0.6-0.9,0.7-1.4c0.2-0.6,0.2-1.1,0.2-1.6c0-0.6-0.1-1.1-0.2-1.6c-0.2-0.6-0.4-1-0.7-1.4
	c-0.3-0.4-0.7-0.7-1.1-1s-1-0.4-1.6-0.4C317.3,247.6,316.8,247.7,316.3,247.9z"/>
<path fill="#333333" d="M326,242.8v14.4h-1.3v-14.4H326z"/>
<path fill="#333333" d="M334.9,246.9c0.7,0.3,1.1,0.7,1.6,1.2c0.4,0.5,0.7,1.1,0.9,1.8c0.2,0.7,0.3,1.4,0.3,2.1s-0.1,1.5-0.3,2.1
	c-0.2,0.7-0.6,1.2-0.9,1.8c-0.4,0.5-0.9,0.9-1.6,1.2c-0.7,0.3-1.3,0.5-2.1,0.5s-1.5-0.2-2.1-0.5c-0.7-0.3-1.1-0.7-1.6-1.2
	c-0.4-0.5-0.7-1.1-0.9-1.8s-0.3-1.4-0.3-2.1s0.1-1.5,0.3-2.1s0.6-1.2,0.9-1.8c0.4-0.6,0.9-0.9,1.6-1.2c0.7-0.3,1.3-0.5,2.1-0.5
	S334.3,246.6,334.9,246.9z M331.2,247.9c-0.5,0.3-0.8,0.6-1.1,1c-0.3,0.4-0.6,0.9-0.7,1.4c-0.2,0.6-0.2,1.1-0.2,1.6
	c0,0.6,0.1,1.1,0.2,1.6c0.2,0.6,0.4,1,0.7,1.4s0.7,0.7,1.1,1c0.5,0.3,1,0.4,1.6,0.4c0.6,0,1.1-0.1,1.6-0.4c0.5-0.3,0.8-0.6,1.1-1
	c0.3-0.4,0.6-0.9,0.7-1.4c0.1-0.5,0.2-1.1,0.2-1.6c0-0.6-0.1-1.1-0.2-1.6c-0.1-0.5-0.4-1-0.7-1.4c-0.3-0.4-0.7-0.7-1.1-1
	s-1-0.4-1.6-0.4C332.2,247.6,331.7,247.7,331.2,247.9z"/>
<path fill="#333333" d="M348.2,258.5c-0.2,0.7-0.5,1.1-0.8,1.6s-0.8,0.7-1.4,1c-0.6,0.2-1.3,0.4-2.1,0.4c-0.6,0-1-0.1-1.5-0.2
	c-0.5-0.1-0.9-0.3-1.3-0.6c-0.4-0.3-0.7-0.6-1-1c-0.3-0.4-0.4-0.8-0.5-1.4h1.3c0.1,0.4,0.2,0.7,0.4,1s0.5,0.5,0.7,0.7
	c0.3,0.2,0.6,0.3,0.9,0.4c0.4,0.1,0.7,0.1,1,0.1c1.2,0,2.1-0.4,2.6-1c0.6-0.7,0.7-1.7,0.7-2.9v-1.4l0,0c-0.3,0.7-0.7,1.2-1.3,1.6
	c-0.6,0.4-1.2,0.6-2.1,0.6c-0.8,0-1.6-0.1-2.1-0.4s-1.1-0.7-1.5-1.1s-0.7-1-0.8-1.7s-0.3-1.3-0.3-2.1s0.1-1.4,0.3-2.1
	s0.5-1.2,0.9-1.7c0.4-0.5,0.9-0.8,1.5-1.1s1.2-0.4,2.1-0.4c0.4,0,0.7,0.1,1.1,0.2c0.4,0.1,0.7,0.3,0.9,0.5s0.6,0.5,0.7,0.7
	c0.2,0.3,0.4,0.6,0.6,0.8l0,0v-1.8h1.3v9.6C348.5,257.2,348.4,257.8,348.2,258.5z M345.3,255.7c0.4-0.3,0.7-0.6,1-0.9
	c0.3-0.4,0.5-0.8,0.7-1.3c0.2-0.5,0.2-1,0.2-1.5c0-0.5-0.1-1-0.2-1.5c-0.1-0.5-0.3-0.9-0.6-1.4c-0.3-0.4-0.7-0.7-1-1
	c-0.5-0.3-0.9-0.4-1.6-0.4c-0.7,0-1.1,0.1-1.6,0.4c-0.5,0.3-0.7,0.6-1,1c-0.3,0.4-0.5,0.8-0.7,1.4c-0.1,0.6-0.2,1-0.2,1.6
	s0.1,1,0.2,1.5c0.1,0.5,0.4,0.9,0.7,1.3c0.3,0.4,0.7,0.7,1,0.9c0.5,0.3,0.9,0.4,1.5,0.4C344.4,256.1,344.9,255.9,345.3,255.7z"/>
<path fill="#333333" d="M351.1,246.8l3.4,8.9l3.2-8.9h1.3l-4.6,11.9c-0.2,0.5-0.4,0.8-0.6,1.1c-0.2,0.3-0.4,0.6-0.6,0.7
	c-0.2,0.1-0.5,0.3-0.7,0.4c-0.3,0.1-0.6,0.1-1,0.1c-0.3,0-0.5,0-0.6,0c-0.2,0-0.3,0-0.4-0.1v-1c0.2,0,0.3,0.1,0.5,0.1s0.3,0,0.5,0
	c0.3,0,0.6,0,0.7-0.1c0.2-0.1,0.4-0.2,0.5-0.4s0.3-0.3,0.4-0.6c0.1-0.2,0.2-0.5,0.3-0.7l0.5-1.2l-4.2-10.3L351.1,246.8L351.1,246.8z
	"/>
</svg>
