<?xml version="1.0" encoding="utf-8"?>
<!-- Generator: Adobe Illustrator 18.1.1, SVG Export Plug-In . SVG Version: 6.00 Build 0)  -->
<svg version="1.1" id="Layer_1" xmlns="http://www.w3.org/2000/svg" xmlns:xlink="http://www.w3.org/1999/xlink" x="0px" y="0px"
	 viewBox="167.5 173 165 154" enable-background="new 167.5 173 165 154" xml:space="preserve">
<g>
	<g transform="matrix( 1, 0, 0, 1, 0,0) ">
		<g>
			<g id="Layer1_0_FILL">
				<path fill="#94D8F0" d="M196.2,173l-26.9,15.3V219l26.9,15.3L223,219v-30.7L196.2,173z"/>
			</g>
		</g>
	</g>
	<g transform="matrix( 1, 0, 0, 1, 0,0) ">
		<g>
			<g id="Layer1_1_FILL">
				<path fill="#49BDE7" d="M223,219l-26.9,15.3V265l26.9,15.3l26.9-15.3v-30.7L223,219z"/>
			</g>
		</g>
	</g>
	<g transform="matrix( 1, 0, 0, 1, 0,0) ">
		<g>
			<g id="Layer1_2_FILL">
				<path fill="#7B69A8" d="M303.6,265.1v-30.7L276.8,219l-26.9,15.3V265l26.9,15.3L303.6,265.1z"/>
			</g>
		</g>
	</g>
	<g transform="matrix( 1, 0, 0, 1, 0,0) ">
		<g>
			<g id="Layer1_3_FILL">
				<path fill="#B0A4CB" d="M330.5,311.1v-30.7l-26.9-15.3l-26.9,15.3v30.7l26.9,15.3L330.5,311.1z"/>
			</g>
		</g>
	</g>
	<g transform="matrix( 1, 0, 0, 1, 0,0) ">
		<g>
			<g id="Layer0_0_1_STROKES_1_">
				<path fill="#378EAD" d="M196.2,236.3c-0.3,0-0.6-0.1-1-0.3l-26.8-15.3c-0.9-0.5-1.2-1.7-0.7-2.6c0.5-0.9,1.7-1.2,2.6-0.7
					l26.9,15.3c0.9,0.5,1.2,1.7,0.7,2.6C197.5,236,196.8,236.3,196.2,236.3z M223,221c-1.1,0-1.9-0.9-1.9-1.9v-30.7
					c0-1.1,0.9-1.9,1.9-1.9s1.9,0.9,1.9,1.9V219C225,220.1,224.1,221,223,221z"/>
			</g>
		</g>
	</g>
	<g transform="matrix( 1, 0, 0, 1, 0,0) ">
		<g>
			<g id="Layer0_1_1_STROKES">
				<path fill="#378EAD" d="M223,282.4c-0.3,0-0.7-0.1-1-0.3l-26.9-15.3c-0.6-0.3-1-1-1-1.7v-30.7c0-0.7,0.4-1.3,1-1.7l26.9-15.3
					c0.6-0.3,1.3-0.3,1.9,0l26.9,15.3c0.6,0.3,1,1,1,1.7v30.7c0,0.7-0.4,1.3-1,1.7l-26.9,15.3C223.7,282.3,223.4,282.4,223,282.4z
					 M198.1,264l24.9,14.3l25-14.3v-28.5l-24.9-14.3l-24.9,14.3L198.1,264L198.1,264z"/>
			</g>
		</g>
	</g>
	<g transform="matrix( 1, 0, 0, 1, 0,0) ">
		<g>
			<g id="Layer0_2_1_STROKES">
				<path fill="#5C4E7F" d="M276.8,282.4c-0.3,0-0.7-0.1-1-0.3l-26.9-15.3c-0.6-0.3-1-1-1-1.7v-30.7c0-0.7,0.4-1.3,1-1.7l26.9-15.3
					c0.6-0.3,1.3-0.3,1.9,0l26.9,15.3c0.6,0.3,1,1,1,1.7v30.7c0,0.7-0.4,1.3-1,1.7l-26.9,15.3C277.4,282.3,277.1,282.4,276.8,282.4z
					 M251.8,264l24.9,14.3l24.9-14.3v-28.5l-24.9-14.3l-24.9,14.3C251.8,235.5,251.8,264,251.8,264z"/>
			</g>
		</g>
	</g>
	<g transform="matrix( 1, 0, 0, 1, 0,0) ">
		<g>
			<g id="Layer0_3_1_STROKES">
				<path fill="#5C4E7F" d="M276.8,313.1c-1.1,0-1.9-0.9-1.9-1.9v-30.7c0-1.1,0.9-1.9,1.9-1.9c1.1,0,1.9,0.9,1.9,1.9v30.7
					C278.7,312.2,277.8,313.1,276.8,313.1z M330.5,282.4c-0.3,0-0.6-0.1-0.9-0.3l-26.9-15.3c-0.9-0.5-1.2-1.7-0.7-2.6
					s1.7-1.2,2.6-0.7l26.9,15.3c0.9,0.5,1.2,1.7,0.7,2.6C331.8,282,331.1,282.4,330.5,282.4z"/>
			</g>
		</g>
	</g>
	<g transform="matrix( 1, 0, 0, 1, 0,0) ">
		<g>
			<g id="Layer0_4_1_STROKES">
				<path fill="#5C4E7F" d="M303.6,236.3c-0.7,0-1.3-0.3-1.7-1c-0.5-0.9-0.2-2.1,0.7-2.6l26.9-15.3c0.9-0.5,2.1-0.2,2.6,0.7
					s0.2,2.1-0.7,2.6L304.5,236C304.3,236.2,303.9,236.3,303.6,236.3z"/>
			</g>
		</g>
	</g>
</g>
</svg>
