<?xml version="1.0" encoding="utf-8"?>
<!-- Generator: Adobe Illustrator 18.1.1, SVG Export Plug-In . SVG Version: 6.00 Build 0)  -->
<svg version="1.1" id="Layer_1" xmlns="http://www.w3.org/2000/svg" xmlns:xlink="http://www.w3.org/1999/xlink" x="0px" y="0px"
	 viewBox="0 173 500 154" enable-background="new 0 173 500 154" xml:space="preserve">
<g>
	<path fill="#333333" d="M202.3,229.6c-1.1,0.9-1.8,1.8-2.1,3c-0.5,1.1-0.5,2.3-0.5,3.4s0.5,2.3,1.6,3.4s2.5,1.8,4.4,2.8
		c1.8,0.7,3.7,1.4,6,1.8c2.3,0.5,4.6,1.1,6.9,1.6c2.3,0.7,4.6,1.1,6.9,2.1c2.3,0.7,4.4,1.6,6,2.8c3.9,2.5,6,6,6,10.1
		c0,5-1.8,8.9-5.7,11.7s-9.2,4.1-15.8,4.1c-7.6,0-13.5-1.6-17.4-4.8c-3.7-2.8-5.5-6.9-6.2-12.2h6.4c0.2,3.7,2.1,6.7,5.5,8.5
		c3,1.6,6.9,2.5,11.7,2.5c10.3,0,15.4-3.2,15.4-9.6c0-2.3-0.9-3.9-2.8-5.3c-1.8-1.4-4.1-2.3-6.9-3.2c-2.8-0.9-5.7-1.6-8.9-2.3
		c-3.2-0.7-6.2-1.6-8.9-2.8c-2.8-1.1-5-2.5-6.9-4.4c-1.8-1.8-2.8-4.4-2.8-7.6c0-4.4,1.6-8,5-10.8s8.5-4.1,15.4-4.1
		c6.9,0,12.4,1.6,16.1,4.8c3.4,2.8,5.3,6.4,5.5,10.8h-6.7c-0.5-4.6-3.4-7.6-8.7-8.9c-1.8-0.5-4.1-0.9-6.9-0.9s-5,0.2-7.1,0.9
		C204.8,228,203.4,228.7,202.3,229.6z"/>
	<path fill="#333333" d="M283,227.3h-19v48.6h-6.2v-48.6h-19v-6H283V227.3L283,227.3z"/>
	<path fill="#333333" d="M295,275.9h-6.2v-54.6h26.1c5.5,0,10.1,1.6,13.3,4.6c3.4,3,5,7.1,5,12.4c0,6.9-2.8,11.5-8.5,14
		c-1.6,0.7-3.2,1.1-4.6,1.6l14.4,22h-7.3L314,255h-19V275.9z M295,249.1h18.8c5.7,0,9.9-1.8,11.9-5.5c0.9-1.4,1.1-3.2,1.1-5.3
		c0-3.4-1.1-6.2-3.4-8.3c-2.3-2.1-5.5-3-9.4-3h-19.3v22H295z"/>
	<path fill="#333333" d="M392,275.9h-6.9l-6.7-15.8h-27.1l-6.7,15.8h-6.9l23.2-54.6h7.8L392,275.9z M376.1,254.4l-11.2-26.6
		l-11.2,26.6H376.1z"/>
	<path fill="#333333" d="M444.3,221.3v54.6h-7.1l-33.7-46.1v46.1h-6.2v-54.6h7.1l33.7,45.9v-45.9H444.3z"/>
	<path fill="#333333" d="M475,221.3c3.2,0,6.4,0.7,9.4,1.8s5.7,3,8,5.5c5,5.3,7.6,11.9,7.6,20s-2.5,14.9-7.6,20
		c-2.3,2.3-5,4.1-8,5.5c-3,1.1-6.2,1.8-9.4,1.8h-22.9v-54.6H475z M474.8,270c5.7,0,10.3-2.1,14-6.4c3.4-4.1,5.3-9.2,5.3-15.1
		s-1.8-11-5.3-15.1c-3.7-4.1-8.3-6.4-14-6.4h-16.5v42.9h16.5V270z"/>
</g>
<g>
	<g transform="matrix( 1, 0, 0, 1, 0,0) ">
		<g>
			<g id="Layer1_0_FILL">
				<path fill="#94D8F0" d="M28.8,172L1.9,187.3V218l26.9,15.3L55.6,218v-30.7L28.8,172z"/>
			</g>
		</g>
	</g>
	<g transform="matrix( 1, 0, 0, 1, 0,0) ">
		<g>
			<g id="Layer1_1_FILL">
				<path fill="#49BDE7" d="M55.6,218l-26.9,15.3v30.7l26.9,15.3l26.9-15.3v-30.7L55.6,218z"/>
			</g>
		</g>
	</g>
	<g transform="matrix( 1, 0, 0, 1, 0,0) ">
		<g>
			<g id="Layer1_2_FILL">
				<path fill="#7B69A8" d="M136.2,264.1v-30.7L109.4,218l-26.9,15.3v30.7l26.9,15.3L136.2,264.1z"/>
			</g>
		</g>
	</g>
	<g transform="matrix( 1, 0, 0, 1, 0,0) ">
		<g>
			<g id="Layer1_3_FILL">
				<path fill="#B0A4CB" d="M163.1,310.1v-30.7l-26.9-15.3l-26.9,15.3v30.7l26.9,15.3L163.1,310.1z"/>
			</g>
		</g>
	</g>
	<g transform="matrix( 1, 0, 0, 1, 0,0) ">
		<g>
			<g id="Layer0_0_1_STROKES_1_">
				<path fill="#378EAD" d="M28.8,235.3c-0.3,0-0.6-0.1-1-0.3L1,219.7c-0.9-0.5-1.2-1.7-0.7-2.6c0.5-0.9,1.7-1.2,2.6-0.7l26.9,15.3
					c0.9,0.5,1.2,1.7,0.7,2.6C30.1,235,29.4,235.3,28.8,235.3z M55.6,220c-1.1,0-1.9-0.9-1.9-1.9v-30.7c0-1.1,0.9-1.9,1.9-1.9
					s1.9,0.9,1.9,1.9V218C57.6,219.1,56.7,220,55.6,220z"/>
			</g>
		</g>
	</g>
	<g transform="matrix( 1, 0, 0, 1, 0,0) ">
		<g>
			<g id="Layer0_1_1_STROKES">
				<path fill="#378EAD" d="M55.6,281.4c-0.3,0-0.7-0.1-1-0.3l-26.9-15.3c-0.6-0.3-1-1-1-1.7v-30.7c0-0.7,0.4-1.3,1-1.7l26.9-15.3
					c0.6-0.3,1.3-0.3,1.9,0l26.9,15.3c0.6,0.3,1,1,1,1.7v30.7c0,0.7-0.4,1.3-1,1.7l-26.9,15.3C56.3,281.3,56,281.4,55.6,281.4z
					 M30.7,263l24.9,14.3L80.6,263v-28.5l-24.9-14.3l-24.9,14.3V263z"/>
			</g>
		</g>
	</g>
	<g transform="matrix( 1, 0, 0, 1, 0,0) ">
		<g>
			<g id="Layer0_2_1_STROKES">
				<path fill="#5C4E7F" d="M109.4,281.4c-0.3,0-0.7-0.1-1-0.3l-26.9-15.3c-0.6-0.3-1-1-1-1.7v-30.7c0-0.7,0.4-1.3,1-1.7l26.9-15.3
					c0.6-0.3,1.3-0.3,1.9,0l26.9,15.3c0.6,0.3,1,1,1,1.7v30.7c0,0.7-0.4,1.3-1,1.7l-26.9,15.3C110,281.3,109.7,281.4,109.4,281.4z
					 M84.4,263l24.9,14.3l24.9-14.3v-28.5l-24.9-14.3l-24.9,14.3V263z"/>
			</g>
		</g>
	</g>
	<g transform="matrix( 1, 0, 0, 1, 0,0) ">
		<g>
			<g id="Layer0_3_1_STROKES">
				<path fill="#5C4E7F" d="M109.4,312.1c-1.1,0-1.9-0.9-1.9-1.9v-30.7c0-1.1,0.9-1.9,1.9-1.9c1.1,0,1.9,0.9,1.9,1.9v30.7
					C111.3,311.2,110.4,312.1,109.4,312.1z M163.1,281.4c-0.3,0-0.6-0.1-0.9-0.3l-26.9-15.3c-0.9-0.5-1.2-1.7-0.7-2.6
					c0.5-0.9,1.7-1.2,2.6-0.7l26.9,15.3c0.9,0.5,1.2,1.7,0.7,2.6C164.4,281,163.7,281.4,163.1,281.4z"/>
			</g>
		</g>
	</g>
	<g transform="matrix( 1, 0, 0, 1, 0,0) ">
		<g>
			<g id="Layer0_4_1_STROKES">
				<path fill="#5C4E7F" d="M136.2,235.3c-0.7,0-1.3-0.3-1.7-1c-0.5-0.9-0.2-2.1,0.7-2.6l26.9-15.3c0.9-0.5,2.1-0.2,2.6,0.7
					c0.5,0.9,0.2,2.1-0.7,2.6l-26.9,15.3C136.9,235.2,136.5,235.3,136.2,235.3z"/>
			</g>
		</g>
	</g>
</g>
</svg>
